<?xml version="1.0" standalone="no"?>
<!DOCTYPE svg PUBLIC "-//W3C//DTD SVG 20010904//EN"
 "http://www.w3.org/TR/2001/REC-SVG-20010904/DTD/svg10.dtd">
<svg version="1.0" xmlns="http://www.w3.org/2000/svg"
 width="1600.000000pt" height="1600.000000pt" viewBox="0 0 1600.000000 1600.000000"
 preserveAspectRatio="xMidYMid meet">

<g transform="translate(0.000000,1600.000000) scale(0.100000,-0.100000)"
fill="#FFFFFF" stroke="none">
<path d="M2037 14498 c-19 -73 -75 -272 -122 -443 -47 -170 -111 -400 -141
-510 -31 -110 -71 -254 -89 -320 -18 -66 -85 -309 -149 -540 -64 -231 -128
-458 -141 -505 -13 -47 -65 -231 -114 -410 -140 -508 -568 -2050 -611 -2205
-124 -442 -180 -648 -180 -661 0 -23 290 -475 513 -799 1373 -1994 3257 -4049
5247 -5721 373 -314 726 -592 854 -674 342 -217 656 -296 1047 -264 354 30
620 150 1009 458 2044 1615 4117 3783 5581 5836 326 457 769 1128 769 1164 0
13 -56 219 -180 661 -43 155 -471 1697 -611 2205 -49 179 -101 363 -114 410
-13 47 -77 274 -141 505 -64 231 -131 474 -149 540 -18 66 -58 210 -89 320
-30 110 -94 340 -141 510 -47 171 -103 370 -122 443 -20 72 -39 132 -42 131
-3 0 -287 -372 -631 -825 -344 -454 -711 -939 -816 -1077 -105 -139 -355 -468
-555 -732 l-365 -480 -3554 0 -3554 0 -365 480 c-200 264 -450 593 -555 732
-105 138 -472 623 -816 1077 -344 453 -628 825 -631 825 -3 1 -22 -59 -42
-131z m1356 -5596 c923 -694 1659 -1788 1982 -2944 19 -69 35 -133 35 -141 0
-18 -86 -33 -280 -48 -408 -31 -862 53 -1215 224 -239 117 -398 228 -565 396
-126 128 -221 258 -295 406 -130 261 -173 515 -162 965 7 310 42 530 124 784
55 172 157 401 206 463 11 14 16 11 170 -105z m9431 25 c120 -222 213 -516
261 -827 22 -140 31 -538 16 -700 -24 -270 -62 -417 -156 -605 -264 -528 -870
-919 -1566 -1009 -180 -23 -352 -29 -509 -17 -194 15 -280 30 -280 48 0 8 16
72 35 141 298 1066 955 2093 1785 2789 128 107 352 273 361 267 5 -3 28 -42
53 -87z"/>
</g>
</svg>
