<svg version="1.0" width="1600.000000pt" height="1600.000000pt" viewBox="0 0 1600.000000 1600.000000" preserveAspectRatio="xMidYMid meet" xmlns="http://www.w3.org/2000/svg">
  <defs></defs>
  <g fill="#FFFFFF" stroke="none" transform="matrix(0.131908, 0, 0, -0.131908, -293.167816, 1874.083252)" style="">
    <path d="M7785 14144 c-439 -47 -754 -130 -1107 -289 -557 -252 -1054 -693
-1359 -1205 -130 -219 -248 -499 -302 -715 -27 -105 -73 -342 -81 -410 -3 -22
-14 -101 -25 -175 -73 -489 -114 -968 -131 -1506 -5 -174 -12 -319 -15 -322
-2 -3 -20 7 -40 22 -97 74 -221 103 -335 80 -175 -37 -291 -132 -356 -292 -83
-206 -118 -512 -111 -962 4 -257 7 -306 26 -382 56 -233 154 -456 286 -653
204 -305 458 -511 709 -575 l71 -18 7 -138 c4 -77 19 -391 33 -699 13 -308 26
-585 28 -617 3 -54 6 -59 75 -136 469 -520 989 -1271 1462 -2112 73 -129 160
-275 193 -325 82 -120 265 -303 386 -383 296 -198 660 -289 969 -242 148 22
222 42 347 91 200 80 372 195 521 351 114 120 180 218 344 508 473 841 993
1592 1462 2112 69 77 72 82 75 136 2 32 15 309 28 617 14 308 29 622 33 699
l7 138 71 18 c427 109 849 629 995 1228 19 76 22 125 26 382 7 450 -28 756
-111 962 -65 160 -181 255 -356 292 -114 23 -238 -6 -335 -80 -20 -15 -38 -25
-40 -22 -3 3 -10 148 -15 322 -17 538 -58 1017 -131 1506 -11 74 -22 153 -25
175 -20 172 -90 466 -151 635 -374 1038 -1345 1797 -2508 1961 -135 19 -521
33 -620 23z m-3377 -5080 c42 -31 132 -111 198 -178 121 -120 122 -122 192
-266 105 -215 142 -335 217 -702 19 -98 46 -215 59 -260 38 -134 46 -176 53
-256 5 -69 3 -80 -16 -104 -131 -164 -594 186 -756 572 l-24 58 -3 596 c-2
328 -2 596 0 596 2 0 38 -25 80 -56z m7264 -540 l-3 -596 -24 -58 c-57 -137
-173 -299 -293 -411 -199 -186 -390 -253 -463 -161 -33 42 -22 150 37 360 13
45 40 162 59 260 75 367 112 487 217 702 70 144 71 146 192 266 100 100 255
231 276 233 3 1 4 -267 2 -595z m-4937 420 c352 -67 661 -313 806 -643 63
-143 80 -224 86 -407 6 -175 -6 -264 -51 -394 -123 -350 -408 -616 -766 -715
-117 -33 -331 -44 -460 -26 -461 68 -844 441 -925 901 -19 109 -19 296 0 397
80 422 404 767 818 874 148 38 333 43 492 13z m2892 11 c143 -14 318 -78 456
-168 256 -167 436 -433 492 -730 19 -101 19 -288 0 -397 -81 -460 -464 -833
-925 -901 -129 -18 -343 -7 -460 26 -412 114 -720 444 -805 864 -24 116 -16
371 14 485 120 450 519 788 976 825 87 8 133 7 252 -4z m-1738 -1272 c-89
-197 -176 -472 -233 -738 -38 -176 -81 -494 -88 -654 l-3 -55 -78 -27 c-98
-34 -154 -68 -199 -117 -49 -54 -56 -101 -26 -161 20 -38 40 -56 121 -106 152
-95 298 -217 456 -382 80 -84 153 -153 161 -153 8 0 81 69 161 153 158 165
304 287 456 382 81 50 101 68 121 106 30 60 23 107 -26 161 -45 49 -101 83
-199 117 l-78 27 -3 55 c-7 160 -50 478 -88 654 -57 266 -144 541 -233 738
l-30 67 47 0 47 0 37 -88 c107 -254 191 -551 248 -875 17 -98 60 -442 60 -484
0 -7 7 -13 16 -13 31 0 159 -68 206 -109 53 -47 98 -129 98 -179 0 -101 -60
-179 -208 -270 -143 -89 -239 -171 -418 -355 -101 -105 -169 -168 -187 -172
-54 -14 -79 3 -241 172 -179 184 -275 266 -418 355 -148 91 -208 169 -208 270
0 50 45 132 98 179 47 41 175 109 206 109 9 0 16 6 16 13 0 42 43 386 60 484
57 324 141 621 248 875 l37 88 47 0 47 0 -30 -67z"></path>
    <path d="M6390 8626 c-186 -35 -343 -119 -471 -252 -97 -102 -153 -198 -195
-341 -22 -74 -26 -108 -26 -213 -1 -135 16 -222 66 -334 105 -237 349 -427
611 -475 32 -6 106 -11 164 -11 375 0 696 240 803 599 29 97 35 265 14 372
-63 312 -301 560 -615 640 -101 26 -255 32 -351 15z"></path>
    <path d="M9380 8634 c-217 -33 -380 -111 -515 -248 -241 -243 -303 -611 -155
-920 135 -283 429 -466 751 -466 58 0 132 5 164 11 262 48 506 238 611 475 50
112 67 199 66 334 0 105 -4 139 -26 213 -54 182 -154 326 -302 437 -161 121
-415 190 -594 164z"></path>
  </g>
</svg>