<svg id="svg" version="1.1" xmlns="http://www.w3.org/2000/svg" xmlns:xlink="http://www.w3.org/1999/xlink" width="400" height="400" viewBox="0, 0, 400,400"><g id="svgg"><path id="path0" d="M195.500 32.022 C 195.500 32.171,194.927 33.493,194.226 34.959 C 193.526 36.425,192.470 38.638,191.881 39.875 C 191.291 41.112,190.133 43.531,189.308 45.250 C 188.483 46.969,187.300 49.444,186.679 50.750 C 186.059 52.056,184.794 54.700,183.867 56.625 C 182.941 58.550,182.033 60.479,181.849 60.912 C 181.538 61.643,181.403 61.711,179.945 61.868 C 179.081 61.961,176.575 62.318,174.375 62.661 C 172.175 63.004,170.058 63.326,169.670 63.376 C 168.633 63.511,167.719 63.710,164.250 64.556 C 162.531 64.974,160.900 65.349,160.625 65.388 C 160.350 65.427,160.069 65.481,160.000 65.508 C 159.931 65.535,159.762 65.577,159.625 65.602 C 159.164 65.683,157.144 66.286,154.786 67.047 C 153.500 67.462,152.318 67.830,152.161 67.863 C 152.004 67.897,151.706 67.986,151.500 68.061 C 151.294 68.136,149.438 68.791,147.375 69.516 C 143.769 70.784,142.065 71.483,136.625 73.927 C 133.449 75.354,129.274 77.444,127.502 78.494 C 126.747 78.942,125.903 79.406,125.627 79.525 C 125.351 79.644,124.714 79.996,124.211 80.308 C 123.708 80.620,122.752 81.203,122.086 81.603 C 120.638 82.474,115.324 85.971,112.875 87.665 C 103.025 94.477,90.949 106.179,83.120 116.500 C 82.442 117.394,81.802 118.237,81.698 118.375 C 81.593 118.513,81.244 118.963,80.923 119.375 C 76.525 125.016,65.947 143.532,65.355 146.625 C 65.329 146.762,64.957 147.637,64.529 148.569 C 64.100 149.500,63.750 150.410,63.750 150.590 C 63.750 150.769,63.677 150.989,63.588 151.078 C 63.499 151.167,63.235 151.777,63.001 152.433 C 62.766 153.088,62.231 154.581,61.811 155.750 C 60.849 158.429,59.039 164.092,58.899 164.858 C 58.842 165.177,58.454 166.718,58.039 168.282 C 57.060 171.964,55.184 181.926,54.871 185.108 C 54.802 185.805,54.691 186.769,54.624 187.250 C 54.492 188.195,54.299 190.490,54.210 192.173 L 54.154 193.221 51.764 194.251 C 48.776 195.539,48.735 195.557,46.670 196.484 C 45.732 196.905,44.827 197.250,44.658 197.250 C 44.488 197.250,44.243 197.351,44.113 197.475 C 43.982 197.599,42.750 198.169,41.375 198.742 C 40.000 199.315,38.425 199.988,37.875 200.236 C 37.325 200.485,36.256 200.941,35.500 201.249 C 34.744 201.558,33.659 202.017,33.090 202.268 C 32.521 202.520,31.790 202.795,31.465 202.878 C 30.687 203.078,29.796 203.777,30.149 203.912 C 30.299 203.969,31.188 204.519,32.123 205.133 C 33.059 205.747,33.852 206.250,33.885 206.250 C 33.919 206.250,35.393 207.158,37.161 208.269 C 38.929 209.379,40.867 210.588,41.469 210.956 C 42.071 211.324,43.252 212.070,44.094 212.613 C 44.936 213.157,45.917 213.775,46.274 213.988 C 46.631 214.201,48.185 215.162,49.729 216.125 C 51.273 217.088,52.927 218.111,53.405 218.400 C 54.723 219.196,54.749 219.248,55.144 221.900 C 55.346 223.261,55.728 225.556,55.992 227.000 C 56.256 228.444,56.538 230.071,56.618 230.616 C 56.887 232.442,59.203 241.345,60.164 244.250 C 60.687 245.831,61.121 247.238,61.127 247.375 C 61.133 247.512,61.379 248.244,61.675 249.000 C 63.131 252.731,63.500 253.729,63.500 253.942 C 63.500 254.069,63.659 254.500,63.852 254.899 C 64.046 255.298,64.678 256.750,65.256 258.125 C 67.395 263.208,70.078 268.501,73.240 273.875 C 73.968 275.113,74.693 276.350,74.851 276.625 C 75.370 277.526,80.083 284.618,80.358 284.910 C 80.505 285.066,80.850 285.510,81.125 285.896 C 81.400 286.282,82.682 287.954,83.975 289.612 C 92.993 301.177,104.261 311.649,116.391 319.739 C 118.307 321.017,120.156 322.253,120.500 322.485 C 120.844 322.716,121.784 323.293,122.590 323.765 C 123.396 324.238,124.352 324.802,124.715 325.019 C 128.072 327.021,137.349 331.678,138.691 332.034 C 138.792 332.061,139.494 332.355,140.250 332.688 C 142.781 333.801,143.123 333.946,143.565 334.091 C 143.807 334.171,144.032 334.228,144.065 334.219 C 144.098 334.209,144.753 334.479,145.520 334.818 C 146.925 335.439,156.418 338.625,157.529 338.848 C 157.857 338.913,159.981 339.435,162.250 340.007 C 164.519 340.578,166.667 341.084,167.024 341.131 C 167.381 341.178,168.900 341.446,170.399 341.727 C 171.898 342.008,174.194 342.404,175.500 342.608 C 177.825 342.971,178.572 343.059,182.125 343.392 C 183.088 343.482,184.133 343.581,184.447 343.612 C 185.310 343.698,185.899 344.812,196.390 366.187 C 197.757 368.971,198.951 371.249,199.044 371.250 C 199.230 371.250,200.000 369.805,200.000 369.456 C 200.000 369.337,200.554 368.089,201.231 366.682 C 202.859 363.298,204.013 360.827,206.603 355.179 C 207.788 352.596,208.856 350.290,208.977 350.054 C 209.099 349.818,209.863 348.171,210.676 346.395 C 211.771 344.000,212.279 343.149,212.639 343.104 C 215.702 342.720,217.561 342.442,219.875 342.022 C 221.387 341.748,222.991 341.461,223.438 341.386 C 223.884 341.311,224.616 341.188,225.063 341.111 C 225.509 341.035,227.450 340.575,229.375 340.089 C 231.300 339.602,233.044 339.170,233.251 339.128 C 234.194 338.938,236.083 338.378,238.499 337.573 C 239.943 337.091,241.294 336.662,241.500 336.618 C 241.706 336.574,241.875 336.521,241.875 336.500 C 241.875 336.479,242.095 336.421,242.364 336.370 C 242.633 336.320,243.083 336.165,243.364 336.025 C 243.861 335.777,248.000 334.166,248.250 334.122 C 248.682 334.047,249.893 333.553,251.702 332.714 C 252.845 332.184,253.870 331.750,253.980 331.750 C 254.091 331.750,255.023 331.328,256.052 330.813 C 257.081 330.297,258.065 329.843,258.239 329.803 C 258.413 329.764,259.785 329.061,261.287 328.241 C 262.790 327.421,264.112 326.750,264.226 326.750 C 264.339 326.750,264.701 326.543,265.029 326.290 C 265.357 326.037,266.244 325.491,267.000 325.077 C 269.512 323.701,275.779 319.830,276.000 319.518 C 276.069 319.421,276.688 318.965,277.375 318.505 C 278.548 317.719,284.013 313.700,284.679 313.133 C 284.846 312.991,285.127 312.756,285.304 312.612 C 290.995 307.943,296.633 302.638,300.700 298.125 C 305.269 293.054,305.771 292.482,306.534 291.486 C 306.897 291.012,307.403 290.378,307.659 290.076 C 308.692 288.861,309.508 287.746,312.500 283.469 C 315.945 278.544,317.231 276.556,318.833 273.679 C 319.200 273.021,319.660 272.234,319.857 271.929 C 320.461 270.992,322.723 266.728,323.666 264.750 C 325.820 260.230,327.565 256.303,327.525 256.066 C 327.520 256.033,327.751 255.471,328.039 254.816 C 328.746 253.208,329.365 251.560,330.269 248.875 C 330.686 247.637,331.127 246.400,331.250 246.125 C 331.373 245.850,331.646 245.006,331.857 244.250 C 332.069 243.494,332.517 241.919,332.854 240.750 C 333.558 238.304,334.250 235.650,334.414 234.762 C 334.477 234.426,334.700 233.357,334.911 232.387 C 335.977 227.491,335.935 227.705,336.370 224.875 C 336.412 224.600,336.522 223.756,336.615 223.000 C 337.034 219.600,337.278 218.124,337.445 217.983 C 337.708 217.760,343.308 214.371,343.750 214.168 C 343.956 214.072,344.422 213.799,344.786 213.560 C 345.149 213.321,346.105 212.737,346.911 212.264 C 347.716 211.790,350.625 210.031,353.375 208.355 C 356.125 206.680,358.938 204.998,359.625 204.618 C 360.313 204.239,361.438 203.567,362.125 203.127 C 364.140 201.834,367.253 200.001,367.446 199.992 C 367.545 199.988,367.833 199.826,368.088 199.633 C 368.512 199.312,365.673 197.500,364.747 197.500 C 364.639 197.500,363.554 197.045,362.337 196.488 C 361.121 195.931,359.900 195.383,359.625 195.269 C 359.350 195.156,358.360 194.708,357.426 194.273 C 356.491 193.839,355.198 193.272,354.551 193.013 C 353.904 192.755,352.475 192.121,351.375 191.605 C 350.275 191.090,349.262 190.643,349.125 190.613 C 348.818 190.546,345.142 188.884,344.167 188.372 C 343.778 188.167,343.367 188.000,343.254 188.000 C 343.141 188.000,342.110 187.560,340.962 187.021 C 339.814 186.483,338.465 185.875,337.964 185.670 C 337.117 185.324,337.041 185.204,336.882 183.961 C 336.788 183.226,336.668 182.344,336.616 182.000 C 336.564 181.656,336.456 180.789,336.376 180.073 C 336.296 179.357,335.779 176.713,335.226 174.198 C 334.674 171.683,334.181 169.344,334.130 169.000 C 334.037 168.370,333.391 166.023,332.621 163.518 C 332.392 162.771,332.166 161.965,332.121 161.727 C 331.948 160.831,329.157 152.806,328.440 151.143 C 328.029 150.190,327.668 149.290,327.638 149.143 C 327.608 148.995,327.271 148.200,326.889 147.375 C 326.174 145.831,325.749 143.119,325.383 137.750 C 325.294 136.444,325.178 135.094,325.125 134.750 C 325.073 134.406,324.961 133.113,324.877 131.875 C 324.703 129.329,324.561 127.637,324.383 126.000 C 323.901 121.580,323.277 115.022,323.123 112.750 C 323.044 111.581,322.927 110.175,322.863 109.625 C 322.752 108.665,322.687 107.881,322.375 103.750 C 322.297 102.719,322.184 101.537,322.125 101.125 C 322.065 100.713,321.949 99.588,321.867 98.625 C 321.786 97.662,321.501 94.638,321.235 91.904 C 320.968 89.171,320.748 86.808,320.746 86.654 C 320.736 85.887,320.287 87.227,320.261 88.106 C 320.199 90.168,319.464 97.536,318.102 109.750 C 317.828 112.205,317.691 113.659,317.371 117.500 C 317.296 118.394,317.130 120.025,317.003 121.125 C 316.875 122.225,316.702 123.800,316.618 124.625 C 316.356 127.196,316.386 127.205,314.075 123.797 C 312.071 120.841,307.656 114.814,306.593 113.584 C 306.335 113.286,305.911 112.780,305.649 112.459 C 302.028 108.019,294.449 100.285,289.398 95.875 C 288.452 95.050,287.493 94.206,287.266 94.000 C 285.599 92.486,278.050 86.914,274.556 84.618 C 272.807 83.468,271.239 82.409,271.073 82.264 C 270.907 82.119,270.730 82.000,270.680 82.000 C 270.631 82.000,269.191 81.194,267.482 80.210 C 263.047 77.654,256.656 74.422,252.875 72.822 C 251.088 72.066,249.287 71.302,248.875 71.125 C 247.924 70.718,247.195 70.441,246.875 70.366 C 246.738 70.334,245.613 69.915,244.375 69.435 C 241.941 68.490,241.782 68.437,237.500 67.153 C 235.919 66.678,234.344 66.204,234.000 66.098 C 233.203 65.853,233.028 65.808,232.165 65.629 C 231.775 65.548,229.863 65.090,227.915 64.610 C 225.968 64.131,224.094 63.721,223.750 63.699 C 223.406 63.677,223.012 63.588,222.875 63.500 C 222.738 63.412,222.287 63.320,221.875 63.294 C 221.463 63.268,220.506 63.136,219.750 63.000 C 218.994 62.864,216.750 62.527,214.765 62.251 C 212.678 61.961,211.066 61.618,210.944 61.437 C 210.828 61.266,209.909 59.494,208.901 57.500 C 207.894 55.506,205.999 51.794,204.692 49.250 C 203.384 46.706,201.219 42.487,199.880 39.875 C 195.335 31.007,195.500 31.303,195.500 32.022 M179.802 91.649 C 180.653 96.091,181.475 100.650,181.623 101.750 C 181.707 102.369,182.099 104.563,182.496 106.625 C 182.893 108.688,183.292 110.881,183.384 111.500 C 183.475 112.119,183.585 112.850,183.627 113.125 C 183.724 113.763,184.540 118.189,185.333 122.375 C 185.671 124.162,186.011 126.131,186.088 126.750 C 186.165 127.369,186.618 129.900,187.095 132.375 C 187.572 134.850,188.035 137.381,188.125 138.000 C 188.214 138.619,188.621 140.925,189.030 143.125 C 190.240 149.646,190.498 151.079,190.625 152.000 C 190.763 153.008,190.744 152.899,191.876 159.000 C 192.347 161.544,192.795 164.080,192.871 164.635 C 192.947 165.191,193.064 165.922,193.132 166.260 C 193.200 166.598,193.314 167.213,193.386 167.625 C 193.459 168.037,193.789 169.781,194.120 171.500 C 194.451 173.219,194.797 175.188,194.889 175.875 C 194.980 176.563,195.101 177.350,195.157 177.625 C 195.213 177.900,195.321 178.519,195.396 179.000 C 195.472 179.481,195.744 180.944,196.002 182.250 C 196.600 185.279,197.433 189.867,197.591 191.000 C 198.053 194.312,198.364 195.580,198.574 195.000 C 198.697 194.660,199.781 188.071,200.116 185.625 C 200.191 185.075,200.315 184.175,200.392 183.625 C 200.468 183.075,200.854 180.656,201.249 178.250 C 201.974 173.830,202.277 171.935,202.367 171.250 C 202.717 168.595,203.207 165.468,204.384 158.375 C 204.567 157.275,204.639 156.761,204.877 154.885 C 204.966 154.192,205.429 151.282,205.908 148.419 C 206.836 142.869,206.967 142.053,207.115 140.875 C 207.442 138.282,207.620 137.121,208.377 132.625 C 209.219 127.626,209.358 126.718,209.635 124.375 C 209.717 123.688,210.164 120.875,210.630 118.125 C 211.467 113.189,211.618 112.209,211.882 110.000 C 211.956 109.381,212.354 106.885,212.768 104.453 C 213.181 102.021,213.573 99.611,213.638 99.098 C 213.704 98.585,213.823 97.819,213.903 97.395 C 213.983 96.972,214.090 96.231,214.141 95.750 C 214.381 93.496,215.078 89.500,215.231 89.500 C 215.325 89.500,216.915 89.830,218.764 90.234 C 220.612 90.638,222.433 91.024,222.808 91.092 C 223.184 91.160,223.593 91.278,223.717 91.354 C 223.840 91.431,224.356 91.559,224.862 91.640 C 225.825 91.793,228.869 92.683,230.691 93.344 C 231.277 93.556,231.840 93.736,231.941 93.743 C 232.736 93.799,239.105 96.185,241.716 97.406 C 243.003 98.008,244.110 98.500,244.175 98.500 C 244.350 98.500,250.184 101.446,251.625 102.262 C 252.313 102.651,253.100 103.078,253.375 103.210 C 253.650 103.342,254.302 103.742,254.824 104.100 C 255.345 104.457,255.833 104.750,255.908 104.750 C 256.360 104.750,264.499 110.463,267.795 113.094 C 275.327 119.105,284.127 128.337,288.999 135.337 C 289.205 135.633,289.571 136.093,289.812 136.360 C 290.053 136.626,290.250 136.982,290.250 137.151 C 290.250 137.320,290.344 137.496,290.459 137.542 C 290.906 137.721,296.543 146.760,296.746 147.625 C 296.779 147.762,297.003 148.156,297.246 148.500 C 297.780 149.257,299.250 152.152,299.250 152.447 C 299.250 152.563,298.491 152.813,297.563 153.002 C 296.634 153.192,295.762 153.375,295.625 153.410 C 295.488 153.445,295.094 153.534,294.750 153.608 C 294.406 153.682,292.831 154.198,291.250 154.755 C 289.669 155.312,288.206 155.810,288.000 155.861 C 287.794 155.913,286.669 156.367,285.500 156.871 C 284.331 157.374,283.262 157.811,283.125 157.841 C 282.809 157.909,275.754 161.489,274.250 162.344 C 273.631 162.696,272.788 163.173,272.375 163.403 C 266.170 166.874,258.078 173.218,252.687 178.838 C 246.355 185.439,242.406 189.359,241.000 190.439 C 240.244 191.020,239.495 191.604,239.335 191.736 C 238.487 192.442,234.151 194.966,233.500 195.134 C 233.431 195.151,232.588 195.531,231.625 195.978 C 228.619 197.372,223.334 198.975,220.375 199.389 C 219.688 199.486,218.900 199.610,218.625 199.665 C 217.553 199.881,212.813 199.956,211.698 199.774 C 209.791 199.464,209.768 199.754,211.534 201.785 C 212.414 202.797,214.030 204.863,215.125 206.375 C 216.219 207.887,217.251 209.267,217.417 209.440 C 218.356 210.419,227.250 224.574,227.250 225.089 C 227.250 225.155,227.935 226.369,228.772 227.786 C 230.418 230.575,232.246 233.169,234.461 235.860 C 235.591 237.233,240.001 241.696,241.146 242.625 C 241.654 243.037,242.195 243.492,242.347 243.636 C 242.500 243.779,243.469 244.465,244.500 245.160 C 251.985 250.205,257.884 252.591,265.756 253.759 C 270.216 254.420,271.933 254.325,277.460 253.111 C 277.781 253.040,279.436 252.380,281.136 251.644 C 291.582 247.124,301.338 237.409,307.515 225.375 C 308.503 223.450,309.241 222.213,309.156 222.625 C 309.070 223.037,308.834 224.331,308.631 225.500 C 308.429 226.669,307.993 228.637,307.664 229.875 C 305.946 236.329,305.443 238.045,304.734 239.875 C 304.308 240.975,303.870 242.213,303.759 242.625 C 303.487 243.645,302.553 245.972,301.979 247.059 C 301.853 247.298,301.750 247.617,301.750 247.768 C 301.750 248.946,292.864 265.213,291.000 267.448 C 290.794 267.695,290.238 268.455,289.766 269.136 C 288.378 271.137,285.598 274.804,284.752 275.749 C 284.322 276.230,283.500 277.187,282.926 277.874 C 281.528 279.550,272.720 288.345,271.030 289.754 C 270.290 290.371,269.333 291.187,268.905 291.569 C 267.832 292.523,262.874 296.256,261.500 297.144 C 260.881 297.543,260.316 297.950,260.243 298.048 C 259.456 299.105,242.607 308.250,241.447 308.250 C 241.256 308.250,240.993 308.354,240.863 308.482 C 240.422 308.913,230.246 312.607,228.752 312.878 C 228.407 312.941,227.338 313.221,226.375 313.500 C 223.107 314.449,219.399 315.292,218.250 315.346 C 217.626 315.375,216.675 311.970,216.163 307.875 C 216.094 307.325,215.636 304.932,215.146 302.557 C 214.656 300.182,214.199 297.819,214.131 297.307 C 214.063 296.794,213.949 296.094,213.876 295.750 C 213.804 295.406,213.684 294.794,213.610 294.390 C 213.537 293.985,213.086 291.735,212.609 289.390 C 212.132 287.044,211.695 284.788,211.638 284.375 C 211.415 282.748,211.181 281.491,210.500 278.250 C 210.110 276.394,209.725 274.453,209.645 273.938 C 209.392 272.303,209.212 271.201,209.121 270.729 C 209.072 270.477,208.588 267.988,208.043 265.198 C 207.499 262.408,206.805 258.831,206.501 257.250 C 206.197 255.669,205.802 253.644,205.623 252.750 C 205.250 250.879,205.075 249.921,204.755 248.000 C 204.629 247.244,204.475 246.400,204.413 246.125 C 204.245 245.384,202.545 236.765,202.366 235.750 C 202.281 235.269,202.117 234.313,202.001 233.625 C 201.885 232.938,201.393 230.406,200.908 228.000 C 200.423 225.594,199.955 223.119,199.868 222.500 C 199.782 221.881,199.387 219.800,198.992 217.875 C 198.596 215.950,198.209 213.920,198.132 213.365 C 198.055 212.809,197.937 212.078,197.870 211.740 C 197.803 211.402,197.624 210.416,197.471 209.549 C 197.319 208.682,197.156 208.010,197.110 208.056 C 197.032 208.135,195.986 214.647,195.614 217.375 C 195.520 218.063,195.399 218.906,195.345 219.250 C 195.290 219.594,195.187 220.438,195.114 221.125 C 195.005 222.152,194.404 226.264,193.103 234.875 C 193.020 235.425,192.903 236.381,192.843 237.000 C 192.783 237.619,192.337 240.713,191.852 243.875 C 191.367 247.037,190.927 249.906,190.874 250.250 C 190.737 251.146,190.536 252.681,190.365 254.125 C 190.284 254.813,189.898 257.512,189.507 260.125 C 189.117 262.738,188.722 265.420,188.630 266.085 C 188.538 266.751,188.427 267.482,188.383 267.710 C 188.339 267.938,188.226 268.856,188.132 269.750 C 188.038 270.644,187.694 273.063,187.367 275.125 C 187.041 277.188,186.699 279.438,186.609 280.125 C 186.519 280.813,186.403 281.595,186.352 281.865 C 186.252 282.392,186.093 283.524,185.895 285.125 C 185.701 286.692,184.982 291.807,184.857 292.500 C 184.796 292.844,184.632 293.900,184.494 294.848 C 184.355 295.795,184.192 296.808,184.130 297.098 C 184.032 297.563,183.957 298.089,183.609 300.750 C 183.564 301.094,183.468 301.938,183.395 302.625 C 183.242 304.082,183.171 304.574,182.515 308.750 C 182.245 310.469,181.953 312.379,181.867 312.995 C 181.780 313.611,181.668 314.181,181.617 314.263 C 181.567 314.344,181.498 314.881,181.464 315.455 C 181.393 316.653,181.537 316.617,178.750 316.120 C 177.581 315.911,175.950 315.635,175.125 315.507 C 172.225 315.054,168.791 314.261,165.938 313.385 C 164.872 313.058,164.000 312.830,164.000 312.879 C 164.000 313.136,152.234 308.818,151.828 308.411 C 151.739 308.322,151.499 308.250,151.294 308.250 C 150.830 308.250,141.126 303.458,139.886 302.616 C 139.387 302.277,138.931 302.000,138.873 302.000 C 138.678 302.000,134.889 299.659,133.250 298.527 C 130.039 296.308,129.112 295.659,128.250 295.028 C 127.306 294.336,123.705 291.479,123.500 291.259 C 123.431 291.185,122.588 290.456,121.625 289.638 C 117.872 286.449,111.599 280.024,108.106 275.791 C 107.842 275.471,107.365 274.908,107.046 274.541 C 106.404 273.801,103.776 270.308,102.407 268.375 C 101.713 267.395,98.766 262.752,97.249 260.250 C 96.667 259.289,93.491 253.200,92.815 251.750 C 91.356 248.617,89.293 243.780,89.109 243.060 C 89.048 242.821,88.553 241.331,88.010 239.750 C 86.576 235.576,84.848 229.409,84.612 227.625 C 84.558 227.213,84.286 225.815,84.007 224.520 C 83.729 223.225,83.535 222.131,83.577 222.090 C 83.700 221.967,87.015 221.310,88.375 221.138 C 89.063 221.052,89.794 220.934,90.000 220.876 C 90.206 220.818,90.881 220.712,91.500 220.640 C 92.119 220.568,94.031 220.235,95.750 219.899 C 99.423 219.182,101.540 218.804,102.750 218.648 C 104.228 218.458,105.455 218.246,110.125 217.379 C 112.600 216.919,115.131 216.476,115.750 216.394 C 117.083 216.219,117.083 216.219,123.000 215.128 C 125.544 214.658,128.131 214.204,128.750 214.119 C 130.067 213.936,133.758 213.292,138.500 212.418 C 141.518 211.862,142.479 211.700,144.762 211.365 C 145.112 211.314,146.912 210.992,148.762 210.650 C 152.704 209.923,155.376 209.467,156.250 209.375 C 157.161 209.278,162.726 208.265,163.750 208.010 C 164.544 207.811,166.436 207.499,169.125 207.124 C 170.627 206.914,171.237 206.806,176.125 205.891 C 178.600 205.427,180.794 205.040,181.000 205.031 C 181.206 205.022,181.656 204.959,182.000 204.892 C 182.344 204.824,183.356 204.652,184.250 204.510 C 185.144 204.368,187.896 203.870,190.365 203.404 C 192.835 202.937,195.000 202.612,195.178 202.680 C 195.355 202.748,195.500 202.679,195.500 202.527 C 195.500 202.375,195.359 202.239,195.188 202.225 C 193.256 202.072,183.888 200.895,181.500 200.506 C 180.744 200.382,179.491 200.214,178.716 200.132 C 177.941 200.050,177.098 199.943,176.841 199.895 C 176.585 199.847,175.588 199.731,174.625 199.636 C 173.662 199.542,169.950 199.073,166.375 198.595 C 157.746 197.440,157.930 197.463,157.500 197.453 C 157.294 197.448,153.412 196.956,148.875 196.359 C 144.338 195.763,139.950 195.204,139.125 195.118 C 138.300 195.031,134.813 194.584,131.375 194.123 C 127.938 193.662,124.563 193.216,123.875 193.131 C 123.188 193.046,122.344 192.935,122.000 192.883 C 121.656 192.831,120.700 192.720,119.875 192.635 C 118.190 192.464,108.953 191.285,108.023 191.124 C 107.240 190.987,105.604 190.766,104.500 190.647 C 102.086 190.386,100.147 190.145,94.875 189.450 C 91.713 189.033,88.844 188.652,88.500 188.604 C 88.156 188.555,87.200 188.440,86.375 188.347 C 85.550 188.254,84.650 188.153,84.375 188.121 C 84.100 188.090,83.625 188.049,83.319 188.032 C 82.681 187.995,82.654 188.401,83.638 183.125 C 83.996 181.200,84.301 179.400,84.314 179.125 C 84.328 178.850,84.447 178.482,84.580 178.306 C 84.713 178.131,84.762 177.929,84.691 177.857 C 84.565 177.731,85.287 174.801,86.596 170.125 C 87.349 167.437,89.959 160.077,90.714 158.516 C 91.009 157.905,91.250 157.312,91.250 157.197 C 91.250 156.672,96.963 145.497,97.614 144.750 C 97.794 144.544,98.018 144.122,98.112 143.813 C 98.207 143.503,98.389 143.250,98.517 143.250 C 98.645 143.250,98.750 143.140,98.750 143.006 C 98.750 142.768,101.914 137.748,102.220 137.500 C 102.305 137.431,102.487 137.194,102.625 136.973 C 106.362 130.957,116.686 119.804,124.144 113.725 C 125.393 112.707,127.284 111.256,128.348 110.500 C 129.411 109.744,130.503 108.940,130.774 108.714 C 131.044 108.488,132.190 107.712,133.320 106.989 C 134.450 106.267,135.680 105.467,136.052 105.213 C 136.425 104.958,136.792 104.750,136.867 104.750 C 136.943 104.750,137.470 104.412,138.040 104.000 C 138.609 103.588,139.173 103.250,139.292 103.250 C 139.412 103.250,139.961 102.965,140.513 102.617 C 141.511 101.987,148.839 98.250,149.076 98.250 C 149.144 98.250,150.165 97.800,151.345 97.250 C 152.524 96.700,153.642 96.250,153.828 96.250 C 154.014 96.250,154.244 96.173,154.338 96.079 C 154.432 95.984,154.873 95.775,155.317 95.613 C 155.761 95.452,157.222 94.915,158.563 94.420 C 159.903 93.926,161.000 93.574,161.000 93.639 C 161.000 93.704,161.376 93.600,161.836 93.407 C 162.899 92.963,166.851 91.824,168.000 91.631 C 168.481 91.550,169.236 91.368,169.678 91.226 C 170.911 90.829,178.556 89.303,178.991 89.366 C 179.265 89.406,179.497 90.060,179.802 91.649 M299.415 183.687 C 299.437 186.816,299.488 191.119,299.529 193.250 C 299.569 195.381,299.515 197.575,299.408 198.125 C 299.302 198.675,299.167 199.477,299.109 199.906 C 298.382 205.272,293.895 213.060,288.856 217.703 C 277.256 228.393,260.560 230.628,247.375 223.257 C 244.715 221.770,244.418 221.597,241.500 219.832 C 239.919 218.875,237.185 217.369,235.425 216.485 L 232.225 214.876 233.805 213.376 C 235.382 211.878,237.130 210.287,239.907 207.821 C 241.251 206.628,245.415 203.331,247.101 202.125 C 247.485 201.850,248.211 201.305,248.712 200.913 C 250.597 199.443,260.523 193.000,260.903 193.000 C 260.983 193.000,261.346 192.789,261.711 192.532 C 263.819 191.046,277.464 184.250,278.341 184.250 C 278.511 184.250,278.757 184.152,278.888 184.031 C 279.535 183.436,289.835 179.930,292.500 179.399 C 292.844 179.330,294.475 178.996,296.125 178.657 C 297.775 178.317,299.181 178.030,299.250 178.019 C 299.319 178.009,299.393 180.559,299.415 183.687 " stroke="none" fill="#FFFFFF" fill-rule="evenodd"></path><path id="path1" d="M204.375 48.000 C 204.588 48.413,204.819 48.750,204.888 48.750 C 204.957 48.750,204.838 48.413,204.625 48.000 C 204.412 47.587,204.181 47.250,204.112 47.250 C 204.043 47.250,204.162 47.587,204.375 48.000 M206.857 52.988 C 206.857 53.257,206.906 53.427,206.966 53.367 C 207.026 53.307,207.233 53.453,207.425 53.691 C 207.673 53.999,207.660 53.890,207.381 53.313 C 206.923 52.367,206.857 52.327,206.857 52.988 M177.500 61.597 C 177.500 61.650,177.832 61.742,178.237 61.801 C 178.642 61.861,178.917 61.817,178.847 61.705 C 178.723 61.504,177.500 61.406,177.500 61.597 M157.509 65.601 C 156.726 65.884,156.696 65.928,157.197 66.059 C 157.554 66.152,157.692 66.109,157.586 65.937 C 157.483 65.770,157.606 65.720,157.919 65.801 C 158.236 65.884,158.417 65.808,158.417 65.591 C 158.417 65.403,158.407 65.259,158.396 65.269 C 158.384 65.279,157.985 65.429,157.509 65.601 M241.133 67.987 C 241.035 68.145,241.139 68.181,241.403 68.080 C 241.640 67.989,241.769 68.018,241.691 68.145 C 241.613 68.272,241.890 68.388,242.307 68.403 C 242.768 68.420,242.930 68.359,242.720 68.246 C 241.993 67.855,241.286 67.740,241.133 67.987 M149.386 68.233 C 149.307 68.361,149.374 68.547,149.535 68.646 C 149.726 68.765,149.760 68.718,149.632 68.512 C 149.487 68.277,149.589 68.239,150.031 68.365 C 150.489 68.494,150.539 68.473,150.250 68.270 C 149.784 67.944,149.570 67.934,149.386 68.233 M143.688 70.270 C 143.447 70.410,143.252 70.660,143.254 70.825 C 143.256 71.026,143.330 71.011,143.476 70.780 C 143.596 70.591,143.800 70.502,143.930 70.582 C 144.060 70.662,144.167 70.564,144.167 70.364 C 144.167 70.164,144.157 70.003,144.146 70.008 C 144.134 70.012,143.928 70.130,143.688 70.270 M247.689 70.166 C 247.862 70.236,247.954 70.371,247.895 70.468 C 247.835 70.564,248.011 70.643,248.285 70.643 C 248.753 70.643,248.756 70.623,248.344 70.321 C 248.102 70.145,247.785 70.009,247.640 70.020 C 247.494 70.031,247.516 70.096,247.689 70.166 M258.309 74.825 C 258.547 75.017,258.693 75.224,258.633 75.284 C 258.573 75.344,258.743 75.393,259.012 75.393 C 259.673 75.393,259.633 75.327,258.688 74.869 C 258.110 74.590,258.001 74.577,258.309 74.825 M128.715 77.228 C 128.391 77.492,128.181 77.751,128.250 77.805 C 128.319 77.858,128.646 77.643,128.977 77.326 C 129.706 76.628,129.534 76.564,128.715 77.228 M267.083 79.647 C 267.083 79.841,267.136 79.948,267.200 79.884 C 267.263 79.820,267.526 79.880,267.783 80.018 C 268.445 80.372,268.363 80.132,267.667 79.675 C 267.178 79.355,267.083 79.350,267.083 79.647 M271.024 81.946 C 271.186 82.205,271.472 82.417,271.659 82.417 C 272.123 82.417,272.097 82.371,271.365 81.892 C 270.756 81.493,270.742 81.495,271.024 81.946 M117.125 84.147 L 116.375 84.791 117.188 84.254 C 117.634 83.958,118.000 83.667,118.000 83.608 C 118.000 83.421,117.894 83.486,117.125 84.147 M280.624 88.502 C 280.539 88.639,280.533 88.764,280.610 88.781 C 280.687 88.798,280.834 88.831,280.938 88.853 C 281.041 88.875,281.378 89.033,281.688 89.205 C 282.472 89.641,282.389 89.447,281.513 88.799 C 281.079 88.478,280.714 88.356,280.624 88.502 M286.350 93.063 C 286.251 93.234,286.264 93.290,286.379 93.185 C 286.494 93.081,286.878 93.250,287.231 93.560 L 287.875 94.125 287.269 93.438 C 286.570 92.644,286.586 92.651,286.350 93.063 M229.730 93.526 C 230.063 93.658,230.422 93.677,230.529 93.570 C 230.636 93.463,230.364 93.355,229.924 93.331 C 229.174 93.290,229.162 93.302,229.730 93.526 M156.153 95.545 C 156.277 95.746,156.185 95.779,155.854 95.653 C 155.491 95.514,155.445 95.541,155.663 95.761 C 155.857 95.956,156.092 95.973,156.378 95.813 C 156.773 95.592,156.774 95.563,156.389 95.415 C 156.112 95.309,156.034 95.352,156.153 95.545 M289.375 95.500 C 289.219 95.753,289.250 95.778,289.813 95.855 C 289.984 95.879,290.087 96.061,290.042 96.261 C 289.996 96.461,290.042 96.542,290.144 96.440 C 290.246 96.338,290.508 96.390,290.727 96.555 C 290.946 96.721,290.795 96.495,290.391 96.053 C 289.563 95.148,289.585 95.160,289.375 95.500 M291.833 97.625 C 291.833 97.831,291.891 97.942,291.962 97.871 C 292.033 97.801,292.436 98.054,292.858 98.433 C 293.530 99.038,293.518 99.008,292.763 98.187 C 291.767 97.103,291.833 97.143,291.833 97.625 M98.851 98.570 C 98.294 99.186,98.271 99.246,98.750 98.827 C 99.094 98.526,99.469 98.283,99.583 98.286 C 99.917 98.295,100.054 98.063,99.805 97.909 C 99.679 97.831,99.250 98.129,98.851 98.570 M180.889 99.889 C 180.795 100.391,180.768 100.851,180.829 100.912 C 180.890 100.973,181.017 100.613,181.111 100.111 C 181.205 99.609,181.232 99.149,181.171 99.088 C 181.110 99.027,180.983 99.387,180.889 99.889 M322.558 101.250 C 322.558 101.731,322.609 101.928,322.672 101.688 C 322.735 101.447,322.735 101.053,322.672 100.813 C 322.609 100.572,322.558 100.769,322.558 101.250 M95.227 101.903 C 94.891 102.307,94.647 103.186,94.956 102.877 C 95.049 102.784,95.125 102.577,95.125 102.417 C 95.125 102.256,95.256 102.125,95.417 102.125 C 95.836 102.125,96.075 101.826,95.795 101.653 C 95.664 101.572,95.408 101.684,95.227 101.903 M251.375 102.630 C 251.650 102.853,252.100 103.147,252.375 103.282 L 252.875 103.528 252.375 103.120 C 252.100 102.897,251.650 102.603,251.375 102.468 L 250.875 102.222 251.375 102.630 M322.808 103.750 C 322.808 104.231,322.859 104.428,322.922 104.188 C 322.985 103.947,322.985 103.553,322.922 103.313 C 322.859 103.072,322.808 103.269,322.808 103.750 M93.880 103.744 C 93.634 104.016,93.348 104.186,93.245 104.122 C 93.141 104.058,92.933 104.154,92.782 104.336 C 92.223 105.009,93.229 104.674,93.915 103.958 C 94.288 103.569,94.534 103.250,94.461 103.250 C 94.387 103.250,94.126 103.472,93.880 103.744 M255.647 104.936 C 255.568 105.015,255.735 105.242,256.018 105.441 C 256.301 105.639,256.563 105.761,256.600 105.713 C 256.724 105.550,255.793 104.790,255.647 104.936 M88.614 109.012 C 88.029 109.658,87.860 110.428,88.401 109.978 C 88.600 109.814,88.703 109.620,88.630 109.547 C 88.558 109.475,88.685 109.210,88.913 108.958 C 89.141 108.706,89.271 108.500,89.202 108.500 C 89.134 108.500,88.869 108.730,88.614 109.012 M268.250 114.137 C 268.250 114.167,268.672 114.495,269.188 114.867 C 270.045 115.485,270.068 115.490,269.453 114.922 C 269.084 114.581,268.831 114.252,268.891 114.192 C 268.951 114.132,268.831 114.083,268.625 114.083 C 268.419 114.083,268.250 114.107,268.250 114.137 M83.684 114.813 C 83.493 115.308,83.488 115.495,83.663 115.563 C 83.752 115.597,83.864 115.372,83.911 115.063 C 84.004 114.452,83.876 114.311,83.684 114.813 M274.875 119.750 C 274.790 119.888,274.755 120.009,274.798 120.019 C 275.621 120.223,275.761 120.189,275.483 119.855 C 275.133 119.433,275.077 119.423,274.875 119.750 M276.250 121.375 C 276.716 121.856,277.154 122.250,277.223 122.250 C 277.292 122.250,276.966 121.856,276.500 121.375 C 276.034 120.894,275.596 120.500,275.527 120.500 C 275.458 120.500,275.784 120.894,276.250 121.375 M324.220 121.945 C 324.138 122.442,324.175 122.675,324.313 122.537 C 324.439 122.411,324.500 122.042,324.449 121.716 C 324.371 121.216,324.335 121.251,324.220 121.945 M278.625 123.750 C 279.162 124.300,279.658 124.750,279.726 124.750 C 279.795 124.750,279.412 124.300,278.875 123.750 C 278.338 123.200,277.842 122.750,277.774 122.750 C 277.705 122.750,278.088 123.200,278.625 123.750 M113.610 123.517 C 113.011 124.179,113.600 124.316,114.218 123.659 C 114.634 123.217,114.671 123.083,114.380 123.083 C 114.172 123.083,113.826 123.278,113.610 123.517 M110.831 126.563 C 110.722 126.734,110.626 126.987,110.617 127.125 C 110.609 127.263,110.486 127.353,110.343 127.326 C 110.200 127.300,110.083 127.442,110.083 127.643 C 110.083 127.920,110.215 127.885,110.625 127.500 C 110.923 127.220,111.167 126.824,111.167 126.621 C 111.167 126.168,111.090 126.155,110.831 126.563 M109.469 128.125 C 109.452 128.194,109.422 128.334,109.402 128.438 C 109.383 128.541,109.265 128.794,109.141 129.000 C 109.001 129.232,109.119 129.195,109.451 128.904 C 109.747 128.645,109.928 128.336,109.854 128.217 C 109.706 127.977,109.517 127.932,109.469 128.125 M325.058 128.750 C 325.058 129.231,325.109 129.428,325.172 129.188 C 325.235 128.947,325.235 128.553,325.172 128.313 C 325.109 128.072,325.058 128.269,325.058 128.750 M186.406 130.135 C 186.320 130.358,186.260 130.729,186.271 130.958 C 186.283 131.187,186.392 131.043,186.513 130.638 C 186.749 129.849,186.666 129.458,186.406 130.135 M73.117 130.263 C 72.880 130.647,73.205 130.895,73.526 130.574 C 73.705 130.395,73.710 130.255,73.539 130.149 C 73.399 130.063,73.209 130.114,73.117 130.263 M325.558 134.000 C 325.558 134.481,325.609 134.678,325.672 134.438 C 325.735 134.197,325.735 133.803,325.672 133.563 C 325.609 133.322,325.558 133.519,325.558 134.000 M288.153 134.705 C 288.072 134.836,288.164 135.075,288.358 135.236 C 288.636 135.466,288.698 135.447,288.654 135.146 C 288.578 134.630,288.333 134.414,288.153 134.705 M101.029 139.250 C 101.106 139.827,100.729 140.516,100.435 140.335 C 100.282 140.240,100.247 140.293,100.351 140.461 C 100.593 140.853,100.636 140.836,101.074 140.167 C 101.333 139.772,101.379 139.470,101.218 139.230 C 101.015 138.929,100.987 138.932,101.029 139.250 M187.928 140.500 C 188.115 141.638,188.167 141.677,188.300 140.775 C 188.360 140.363,188.327 140.077,188.226 140.140 C 188.125 140.202,187.984 140.112,187.913 139.939 C 187.842 139.766,187.849 140.019,187.928 140.500 M207.411 140.500 C 207.609 141.578,207.751 141.782,207.746 140.979 C 207.744 140.647,207.632 140.206,207.497 140.000 C 207.324 139.736,207.298 139.884,207.411 140.500 M98.825 142.920 C 98.909 143.055,98.702 143.573,98.364 144.070 C 98.026 144.567,97.750 145.061,97.750 145.167 C 97.750 145.359,98.023 144.997,98.850 143.711 C 99.172 143.210,99.203 143.000,98.975 142.860 C 98.801 142.752,98.738 142.778,98.825 142.920 M326.836 146.539 C 326.858 146.903,326.978 147.138,327.105 147.060 C 327.232 146.981,327.261 147.110,327.170 147.347 C 327.059 147.636,327.100 147.718,327.295 147.597 C 327.496 147.473,327.529 147.565,327.403 147.896 C 327.266 148.255,327.292 148.304,327.506 148.092 C 327.720 147.879,327.667 147.566,327.295 146.842 C 326.847 145.972,326.801 145.942,326.836 146.539 M292.547 153.671 C 291.954 153.880,291.516 154.100,291.575 154.158 C 291.633 154.216,291.997 154.144,292.383 153.997 C 292.770 153.850,293.241 153.789,293.431 153.862 C 293.645 153.944,293.709 153.886,293.599 153.708 C 293.478 153.513,293.594 153.466,293.961 153.562 C 294.258 153.640,294.438 153.601,294.361 153.477 C 294.176 153.177,293.840 153.213,292.547 153.671 M91.837 156.189 C 92.070 156.566,91.750 157.280,91.435 157.085 C 91.271 156.984,91.248 157.045,91.375 157.249 C 91.532 157.504,91.650 157.475,91.913 157.115 C 92.325 156.551,92.336 156.333,91.961 156.101 C 91.791 155.996,91.740 156.032,91.837 156.189 M285.542 156.219 C 285.275 156.388,285.290 156.462,285.617 156.587 C 285.889 156.692,285.966 156.647,285.847 156.455 C 285.726 156.259,285.808 156.219,286.097 156.330 C 286.352 156.427,286.464 156.394,286.373 156.247 C 286.188 155.947,285.981 155.940,285.542 156.219 M190.903 156.875 C 191.108 157.794,191.251 157.994,191.246 157.354 C 191.244 157.091,191.128 156.706,190.989 156.500 C 190.803 156.226,190.780 156.327,190.903 156.875 M280.779 158.348 C 280.394 158.562,280.283 158.741,280.466 158.854 C 280.622 158.951,280.750 158.904,280.750 158.750 C 280.750 158.596,280.863 158.540,281.000 158.625 C 281.137 158.710,281.250 158.654,281.250 158.500 C 281.250 158.346,281.380 158.301,281.539 158.399 C 281.717 158.509,281.759 158.467,281.649 158.289 C 281.437 157.946,281.515 157.940,280.779 158.348 M272.489 162.708 C 272.039 163.073,272.008 163.167,272.337 163.167 C 272.564 163.167,272.695 163.112,272.629 163.046 C 272.562 162.979,272.703 162.776,272.941 162.595 C 273.180 162.414,273.303 162.262,273.215 162.258 C 273.127 162.254,272.801 162.456,272.489 162.708 M58.664 163.552 C 58.585 163.855,58.572 164.155,58.635 164.218 C 58.698 164.282,58.750 164.195,58.750 164.027 C 58.750 163.858,58.852 163.784,58.977 163.861 C 59.101 163.938,59.144 163.776,59.073 163.500 C 58.906 162.864,58.842 162.872,58.664 163.552 M89.073 163.747 C 89.002 164.021,88.845 164.184,88.724 164.109 C 88.604 164.035,88.573 164.149,88.655 164.362 C 88.859 164.895,88.913 164.860,89.213 164.000 C 89.356 163.588,89.413 163.250,89.339 163.250 C 89.264 163.250,89.145 163.474,89.073 163.747 M268.933 164.884 C 268.420 165.233,268.000 165.572,268.000 165.638 C 268.000 165.703,268.450 165.459,269.000 165.095 C 269.873 164.517,270.168 164.250,269.933 164.250 C 269.896 164.250,269.446 164.535,268.933 164.884 M192.537 166.048 C 192.496 166.783,192.859 167.181,193.146 166.715 C 193.255 166.539,193.219 166.490,193.056 166.591 C 192.892 166.692,192.743 166.484,192.679 166.067 L 192.575 165.375 192.537 166.048 M333.604 166.785 C 333.483 166.980,333.532 167.010,333.751 166.875 C 333.995 166.724,334.043 166.809,333.938 167.211 C 333.860 167.508,333.899 167.688,334.023 167.611 C 334.319 167.428,334.315 166.820,334.017 166.636 C 333.889 166.557,333.703 166.624,333.604 166.785 M260.022 171.349 C 259.786 171.633,259.792 171.700,260.049 171.662 C 260.394 171.611,260.617 171.283,260.431 171.098 C 260.371 171.038,260.186 171.150,260.022 171.349 M256.487 174.438 L 255.625 175.375 256.563 174.513 C 257.435 173.712,257.615 173.500,257.424 173.500 C 257.382 173.500,256.960 173.922,256.487 174.438 M254.360 176.274 C 254.144 176.625,254.689 176.750,254.968 176.414 C 255.175 176.164,255.148 176.083,254.860 176.083 C 254.650 176.083,254.425 176.169,254.360 176.274 M252.903 177.721 C 252.381 178.255,252.062 178.759,252.194 178.840 C 252.326 178.922,252.634 178.766,252.880 178.494 C 253.126 178.222,253.236 178.000,253.125 178.000 C 253.014 178.000,253.124 177.778,253.370 177.506 C 253.616 177.234,253.932 177.083,254.072 177.170 C 254.218 177.260,254.251 177.204,254.149 177.039 C 253.912 176.655,253.980 176.618,252.903 177.721 M84.403 179.875 C 84.608 180.794,84.751 180.994,84.746 180.354 C 84.744 180.091,84.628 179.706,84.489 179.500 C 84.303 179.226,84.280 179.327,84.403 179.875 M298.850 184.625 C 298.850 186.688,298.889 187.498,298.936 186.426 C 298.983 185.354,298.983 183.667,298.935 182.676 C 298.888 181.685,298.850 182.563,298.850 184.625 M195.420 182.125 C 195.617 183.109,195.665 183.142,195.808 182.393 C 195.874 182.048,195.841 181.819,195.735 181.884 C 195.629 181.950,195.481 181.862,195.406 181.689 C 195.331 181.516,195.337 181.713,195.420 182.125 M285.625 181.884 C 284.997 182.186,284.977 182.221,285.500 182.094 C 285.844 182.012,286.232 181.844,286.363 181.722 C 286.687 181.419,286.509 181.458,285.625 181.884 M274.609 185.974 C 274.683 186.094,274.404 186.333,273.989 186.505 C 273.574 186.677,273.283 186.867,273.343 186.927 C 273.404 186.987,273.872 186.821,274.385 186.558 C 275.121 186.180,275.229 186.045,274.896 185.918 C 274.664 185.829,274.535 185.854,274.609 185.974 M344.333 188.076 C 344.333 188.240,344.603 188.392,344.933 188.412 C 345.600 188.453,345.596 188.432,344.854 188.047 C 344.466 187.846,344.333 187.853,344.333 188.076 M109.313 190.922 C 109.553 190.985,109.947 190.985,110.188 190.922 C 110.428 190.859,110.231 190.808,109.750 190.808 C 109.269 190.808,109.072 190.859,109.313 190.922 M53.500 192.229 C 53.500 192.630,53.359 193.015,53.188 193.084 C 53.001 193.160,53.051 193.218,53.313 193.230 C 53.650 193.245,53.750 193.049,53.750 192.375 C 53.750 191.894,53.694 191.500,53.625 191.500 C 53.556 191.500,53.500 191.828,53.500 192.229 M236.507 192.887 C 236.030 193.224,235.748 193.496,235.882 193.492 C 236.016 193.488,236.338 193.323,236.599 193.125 C 236.860 192.928,237.151 192.814,237.245 192.872 C 237.339 192.930,237.417 192.814,237.417 192.614 C 237.417 192.414,237.407 192.256,237.396 192.262 C 237.384 192.269,236.984 192.550,236.507 192.887 M257.625 195.397 L 256.875 196.041 257.688 195.504 C 258.134 195.208,258.500 194.917,258.500 194.858 C 258.500 194.671,258.394 194.736,257.625 195.397 M360.000 194.873 C 360.000 195.044,361.531 195.803,361.645 195.688 C 361.699 195.634,361.351 195.403,360.872 195.174 C 360.392 194.945,360.000 194.810,360.000 194.873 M48.042 195.219 C 47.775 195.388,47.790 195.462,48.117 195.587 C 48.389 195.692,48.466 195.647,48.347 195.455 C 48.226 195.259,48.308 195.219,48.597 195.330 C 48.852 195.427,48.964 195.394,48.873 195.247 C 48.688 194.947,48.481 194.940,48.042 195.219 M160.000 197.503 C 159.736 197.676,159.884 197.702,160.500 197.589 C 161.578 197.391,161.782 197.249,160.979 197.254 C 160.647 197.256,160.206 197.368,160.000 197.503 M32.303 201.959 C 31.851 202.200,31.554 202.470,31.642 202.559 C 31.731 202.647,31.932 202.610,32.089 202.476 C 32.246 202.343,32.600 202.072,32.875 201.874 C 33.551 201.390,33.302 201.427,32.303 201.959 M172.403 206.795 C 172.473 206.908,172.392 207.000,172.223 207.000 C 172.055 207.000,171.964 207.048,172.023 207.106 C 172.081 207.164,172.521 207.128,173.002 207.026 L 173.875 206.840 173.076 206.715 C 172.636 206.647,172.333 206.683,172.403 206.795 M215.425 207.667 C 215.882 208.363,216.122 208.445,215.768 207.783 C 215.630 207.526,215.570 207.263,215.634 207.200 C 215.698 207.136,215.591 207.083,215.397 207.083 C 215.100 207.083,215.105 207.178,215.425 207.667 M294.913 209.351 C 294.550 209.907,294.552 209.948,294.947 209.890 C 295.188 209.855,295.387 209.592,295.403 209.289 C 295.439 208.609,295.396 208.615,294.913 209.351 M237.107 210.472 C 237.291 210.768,236.634 211.296,236.374 211.060 C 236.262 210.958,236.255 211.023,236.360 211.204 C 236.511 211.466,236.645 211.447,237.019 211.108 C 237.427 210.739,237.470 210.250,237.095 210.250 C 237.027 210.250,237.032 210.350,237.107 210.472 M197.939 210.956 C 197.861 211.256,197.899 211.438,198.023 211.361 C 198.148 211.284,198.250 211.358,198.250 211.527 C 198.250 211.695,198.309 211.775,198.380 211.703 C 198.452 211.631,198.414 211.311,198.296 210.992 L 198.081 210.412 197.939 210.956 M44.833 213.341 C 44.833 213.528,45.045 213.814,45.304 213.976 C 45.755 214.258,45.757 214.244,45.358 213.635 C 44.879 212.903,44.833 212.877,44.833 213.341 M219.900 213.709 C 219.714 214.011,220.489 215.036,220.771 214.862 C 220.902 214.781,220.942 214.609,220.862 214.479 C 220.781 214.348,220.611 214.307,220.483 214.386 C 220.272 214.516,220.144 214.173,220.220 213.688 C 220.260 213.436,220.061 213.449,219.900 213.709 M130.750 213.973 C 131.060 214.196,131.064 214.243,130.771 214.246 C 130.576 214.248,130.475 214.309,130.547 214.380 C 130.619 214.452,130.947 214.403,131.276 214.271 C 131.606 214.139,131.744 214.025,131.583 214.016 C 131.422 214.007,131.085 213.933,130.833 213.851 C 130.452 213.728,130.438 213.748,130.750 213.973 M195.504 214.271 C 195.506 214.603,195.618 215.044,195.753 215.250 C 195.926 215.514,195.952 215.366,195.839 214.750 C 195.641 213.672,195.499 213.468,195.504 214.271 M222.759 218.375 C 222.760 218.512,222.991 218.906,223.272 219.250 C 223.612 219.665,223.697 219.707,223.525 219.375 C 223.104 218.560,222.758 218.107,222.759 218.375 M199.703 220.208 C 199.642 220.621,199.714 220.917,199.875 220.917 C 200.036 220.917,200.108 220.621,200.047 220.208 C 199.990 219.819,199.913 219.500,199.875 219.500 C 199.837 219.500,199.760 219.819,199.703 220.208 M93.000 220.750 C 92.485 220.915,92.463 220.954,92.875 220.971 C 93.150 220.983,93.544 220.883,93.750 220.750 C 94.188 220.467,93.884 220.467,93.000 220.750 M89.375 221.250 C 89.650 221.368,90.100 221.462,90.375 221.458 C 90.777 221.452,90.752 221.411,90.250 221.250 C 89.395 220.976,88.738 220.976,89.375 221.250 M224.495 221.479 C 224.914 222.238,225.577 222.977,225.273 222.345 C 225.132 222.054,225.098 221.727,225.196 221.618 C 225.295 221.509,225.215 221.513,225.020 221.626 C 224.764 221.774,224.705 221.728,224.809 221.458 C 224.893 221.239,224.812 221.083,224.615 221.083 C 224.381 221.083,224.344 221.206,224.495 221.479 M274.813 225.258 C 274.027 225.574,274.105 225.793,274.896 225.492 C 275.251 225.357,275.662 225.321,275.810 225.412 C 275.968 225.510,276.004 225.459,275.899 225.289 C 275.692 224.954,275.576 224.951,274.813 225.258 M84.354 226.035 C 84.233 226.229,84.282 226.260,84.498 226.126 C 84.742 225.975,84.792 226.088,84.697 226.580 C 84.629 226.940,84.668 227.175,84.786 227.103 C 85.073 226.926,85.059 226.066,84.767 225.886 C 84.639 225.807,84.453 225.874,84.354 226.035 M336.008 226.625 C 336.008 227.209,336.426 227.554,336.596 227.110 C 336.687 226.873,336.703 226.620,336.631 226.548 C 336.559 226.476,336.498 226.576,336.496 226.771 C 336.493 227.062,336.450 227.059,336.250 226.750 C 336.117 226.544,336.008 226.488,336.008 226.625 M263.566 227.179 C 263.946 227.237,264.508 227.235,264.816 227.176 C 265.123 227.117,264.813 227.070,264.125 227.072 C 263.438 227.073,263.186 227.122,263.566 227.179 M261.313 227.422 C 261.553 227.485,261.947 227.485,262.188 227.422 C 262.428 227.359,262.231 227.308,261.750 227.308 C 261.269 227.308,261.072 227.359,261.313 227.422 M56.033 230.750 C 55.990 231.393,56.402 231.865,56.587 231.383 C 56.674 231.158,56.642 231.038,56.516 231.115 C 56.391 231.193,56.236 231.058,56.173 230.816 C 56.092 230.507,56.050 230.487,56.033 230.750 M202.042 231.875 C 202.038 232.150,202.132 232.600,202.250 232.875 C 202.524 233.512,202.524 232.855,202.250 232.000 C 202.089 231.498,202.048 231.473,202.042 231.875 M192.808 233.250 C 192.808 233.731,192.859 233.928,192.922 233.688 C 192.985 233.447,192.985 233.053,192.922 232.813 C 192.859 232.572,192.808 232.769,192.808 233.250 M202.529 234.202 C 202.510 234.571,202.396 234.715,202.211 234.601 C 202.025 234.486,201.991 234.533,202.115 234.733 C 202.387 235.174,202.827 234.670,202.677 234.089 C 202.581 233.716,202.552 233.738,202.529 234.202 M301.969 234.360 C 301.771 235.244,301.449 235.748,301.185 235.585 C 301.032 235.490,300.997 235.543,301.101 235.711 C 301.340 236.098,301.329 236.104,301.951 235.263 C 302.272 234.829,302.394 234.464,302.248 234.374 C 302.111 234.289,301.986 234.283,301.969 234.360 M233.833 235.624 C 233.833 235.830,234.068 236.195,234.354 236.436 C 234.864 236.866,234.866 236.864,234.455 236.375 C 234.224 236.100,234.037 235.781,234.039 235.667 C 234.040 235.552,233.995 235.411,233.938 235.354 C 233.880 235.297,233.833 235.418,233.833 235.624 M334.020 237.827 C 334.009 238.076,333.898 238.216,333.773 238.139 C 333.649 238.062,333.611 238.244,333.689 238.544 L 333.831 239.088 334.048 238.503 C 334.167 238.181,334.214 237.796,334.152 237.646 C 334.090 237.497,334.031 237.579,334.020 237.827 M298.229 238.900 C 297.948 239.239,297.621 240.212,297.873 239.960 C 297.920 239.913,297.940 239.802,297.917 239.714 C 297.894 239.625,298.089 239.316,298.351 239.026 C 298.613 238.737,298.768 238.500,298.694 238.500 C 298.621 238.500,298.412 238.680,298.229 238.900 M304.028 240.278 C 303.874 240.720,303.791 241.125,303.845 241.178 C 303.898 241.232,304.068 240.914,304.222 240.472 C 304.376 240.030,304.459 239.625,304.405 239.572 C 304.352 239.518,304.182 239.836,304.028 240.278 M293.469 243.625 C 293.452 243.694,293.422 243.834,293.402 243.938 C 293.383 244.041,293.265 244.294,293.141 244.500 C 293.001 244.732,293.119 244.695,293.451 244.404 C 293.747 244.145,293.928 243.836,293.854 243.717 C 293.706 243.477,293.517 243.432,293.469 243.625 M331.986 244.938 C 331.479 246.326,331.466 246.380,331.701 246.125 C 331.975 245.828,332.526 244.250,332.356 244.250 C 332.291 244.250,332.125 244.559,331.986 244.938 M191.042 245.625 C 191.038 245.900,191.132 246.350,191.250 246.625 C 191.524 247.262,191.524 246.605,191.250 245.750 C 191.089 245.248,191.048 245.223,191.042 245.625 M204.604 246.785 C 204.483 246.979,204.532 247.010,204.748 246.876 C 204.992 246.725,205.042 246.838,204.947 247.330 C 204.879 247.690,204.918 247.925,205.036 247.853 C 205.323 247.676,205.309 246.816,205.017 246.636 C 204.889 246.557,204.703 246.624,204.604 246.785 M245.900 246.791 C 245.964 246.894,246.200 246.908,246.424 246.822 C 246.719 246.709,246.775 246.757,246.627 246.996 C 246.490 247.218,246.519 247.268,246.715 247.146 C 247.125 246.893,246.836 246.525,246.262 246.568 C 246.000 246.588,245.837 246.688,245.900 246.791 M329.528 252.028 C 329.374 252.470,329.291 252.875,329.345 252.928 C 329.398 252.982,329.568 252.664,329.722 252.222 C 329.876 251.780,329.959 251.375,329.905 251.322 C 329.852 251.268,329.682 251.586,329.528 252.028 M278.903 252.795 C 279.027 252.996,278.935 253.029,278.604 252.903 C 278.241 252.764,278.195 252.791,278.413 253.011 C 278.607 253.206,278.842 253.223,279.128 253.063 C 279.523 252.842,279.524 252.813,279.139 252.665 C 278.862 252.559,278.784 252.602,278.903 252.795 M269.563 254.429 C 269.941 254.486,270.559 254.486,270.938 254.429 C 271.316 254.372,271.006 254.325,270.250 254.325 C 269.494 254.325,269.184 254.372,269.563 254.429 M296.375 257.500 C 296.162 257.913,296.043 258.250,296.112 258.250 C 296.181 258.250,296.412 257.913,296.625 257.500 C 296.838 257.087,296.957 256.750,296.888 256.750 C 296.819 256.750,296.588 257.087,296.375 257.500 M327.349 256.930 C 327.443 257.098,327.347 257.571,327.135 257.980 C 326.923 258.390,326.755 258.815,326.761 258.925 C 326.767 259.035,327.002 258.690,327.282 258.158 C 327.682 257.399,327.726 257.131,327.484 256.908 C 327.253 256.695,327.219 256.701,327.349 256.930 M294.420 260.990 C 294.086 261.557,294.061 261.756,294.309 261.898 C 294.483 261.998,294.540 261.987,294.437 261.873 C 294.333 261.758,294.426 261.393,294.644 261.061 C 294.862 260.728,294.997 260.414,294.944 260.361 C 294.892 260.308,294.656 260.592,294.420 260.990 M325.375 262.000 C 325.162 262.413,325.043 262.750,325.112 262.750 C 325.181 262.750,325.412 262.413,325.625 262.000 C 325.838 261.587,325.957 261.250,325.888 261.250 C 325.819 261.250,325.588 261.587,325.375 262.000 M188.018 266.021 C 188.027 266.353,188.137 266.850,188.262 267.125 C 188.420 267.473,188.442 267.322,188.336 266.625 C 188.159 265.464,187.992 265.147,188.018 266.021 M290.326 267.604 C 289.941 267.936,289.681 268.247,289.750 268.296 C 289.819 268.345,290.199 268.073,290.594 267.692 C 291.478 266.841,291.287 266.777,290.326 267.604 M209.029 268.292 C 209.013 268.521,208.935 268.915,208.856 269.167 C 208.720 269.601,208.727 269.602,208.998 269.180 C 209.155 268.935,209.233 268.541,209.171 268.305 C 209.069 267.918,209.055 267.916,209.029 268.292 M72.398 273.213 C 72.325 273.330,72.414 273.629,72.595 273.876 C 72.852 274.228,72.967 274.255,73.125 273.999 C 73.259 273.783,73.229 273.733,73.039 273.851 C 72.781 274.010,72.638 273.712,72.720 273.188 C 72.760 272.934,72.560 272.950,72.398 273.213 M317.658 276.313 L 317.208 277.125 317.724 276.500 C 318.181 275.946,318.384 275.500,318.179 275.500 C 318.140 275.500,317.905 275.866,317.658 276.313 M109.500 277.078 C 109.500 277.121,109.866 277.487,110.313 277.891 L 111.125 278.625 110.391 277.813 C 109.706 277.055,109.500 276.885,109.500 277.078 M316.023 278.419 C 316.106 278.892,315.986 279.271,315.792 279.151 C 315.677 279.080,315.583 279.181,315.583 279.375 C 315.583 279.813,315.914 279.627,316.249 279.001 C 316.420 278.683,316.418 278.479,316.244 278.372 C 316.103 278.284,316.004 278.306,316.023 278.419 M280.289 280.083 C 279.869 280.531,279.829 280.667,280.121 280.667 C 280.329 280.667,280.444 280.610,280.374 280.541 C 280.305 280.472,280.435 280.210,280.663 279.958 C 281.272 279.285,280.932 279.399,280.289 280.083 M311.091 286.124 C 311.012 286.329,310.866 286.446,310.765 286.385 C 310.665 286.323,310.583 286.431,310.583 286.625 C 310.583 286.819,310.676 286.920,310.790 286.850 C 311.062 286.682,311.559 285.750,311.376 285.750 C 311.298 285.750,311.170 285.918,311.091 286.124 M274.372 286.504 C 274.286 286.644,274.129 286.705,274.023 286.639 C 273.918 286.574,273.391 286.993,272.853 287.571 C 272.256 288.212,272.174 288.353,272.642 287.932 C 273.064 287.553,273.496 287.329,273.601 287.434 C 273.706 287.539,273.754 287.461,273.708 287.261 C 273.663 287.061,273.760 286.893,273.925 286.886 C 274.231 286.875,274.982 286.250,274.690 286.250 C 274.602 286.250,274.459 286.364,274.372 286.504 M124.215 291.815 C 124.369 291.969,124.680 292.122,124.905 292.155 C 125.208 292.200,125.242 292.142,125.035 291.935 C 124.881 291.781,124.570 291.628,124.345 291.595 C 124.042 291.550,124.008 291.608,124.215 291.815 M213.589 292.894 C 213.610 293.632,213.741 294.164,213.902 294.165 C 214.095 294.166,214.111 293.859,213.956 293.146 C 213.613 291.566,213.551 291.524,213.589 292.894 M86.487 293.573 C 87.482 294.644,87.417 294.604,87.417 294.139 C 87.417 293.940,87.300 293.800,87.157 293.826 C 87.014 293.853,86.893 293.734,86.886 293.563 C 86.880 293.391,86.763 293.240,86.625 293.229 C 86.487 293.217,86.206 293.081,86.000 292.927 C 85.794 292.773,86.013 293.064,86.487 293.573 M88.147 295.214 C 88.075 295.331,88.321 295.697,88.695 296.026 L 89.375 296.625 88.810 295.981 C 88.500 295.628,88.321 295.262,88.414 295.169 C 88.507 295.076,88.515 295.000,88.431 295.000 C 88.348 295.000,88.220 295.096,88.147 295.214 M134.689 298.957 C 135.077 299.302,135.155 299.495,134.939 299.578 C 134.766 299.645,134.878 299.687,135.188 299.671 C 135.904 299.636,135.904 299.636,134.938 298.995 C 134.232 298.528,134.199 298.523,134.689 298.957 M183.254 299.021 C 183.256 299.353,183.368 299.794,183.503 300.000 C 183.676 300.264,183.702 300.116,183.589 299.500 C 183.391 298.422,183.249 298.218,183.254 299.021 M183.004 300.521 C 183.006 300.853,183.118 301.294,183.253 301.500 C 183.426 301.764,183.452 301.616,183.339 301.000 C 183.141 299.922,182.999 299.718,183.004 300.521 M93.097 300.613 C 93.172 301.122,94.743 302.740,95.100 302.675 C 95.251 302.648,95.353 302.748,95.326 302.898 C 95.298 303.049,95.758 303.644,96.346 304.222 C 96.998 304.861,97.417 305.126,97.417 304.897 C 97.417 304.691,97.336 304.572,97.237 304.633 C 97.138 304.694,96.918 304.577,96.748 304.372 C 96.578 304.168,96.531 304.000,96.644 304.000 C 96.757 304.000,96.709 303.859,96.537 303.688 C 96.366 303.516,96.090 303.375,95.925 303.375 C 95.760 303.375,95.625 303.240,95.625 303.075 C 95.625 302.910,95.484 302.634,95.313 302.462 C 95.141 302.291,95.000 302.250,95.000 302.372 C 95.000 302.494,94.667 302.274,94.259 301.884 C 93.851 301.493,93.569 301.091,93.631 300.990 C 93.693 300.889,93.586 300.675,93.392 300.514 C 93.114 300.283,93.052 300.304,93.097 300.613 M254.375 301.094 C 253.955 301.401,253.960 301.419,254.458 301.383 C 255.088 301.336,255.375 301.107,255.053 300.908 C 254.927 300.830,254.622 300.914,254.375 301.094 M249.813 303.642 C 249.228 303.992,248.750 304.337,248.750 304.410 C 248.750 304.482,249.142 304.299,249.620 304.003 C 250.099 303.707,250.587 303.524,250.704 303.596 C 250.821 303.669,250.917 303.564,250.917 303.364 C 250.917 303.164,250.907 303.001,250.896 303.002 C 250.884 303.004,250.397 303.291,249.813 303.642 M292.880 306.258 C 293.046 306.527,292.112 307.276,291.877 307.063 C 291.763 306.960,291.756 307.025,291.862 307.208 C 292.010 307.463,292.224 307.378,292.777 306.849 C 293.621 306.040,293.601 306.083,293.136 306.083 C 292.936 306.083,292.821 306.162,292.880 306.258 M216.104 307.035 C 215.983 307.230,216.032 307.260,216.250 307.125 C 216.507 306.966,216.542 307.108,216.414 307.774 C 216.299 308.373,216.323 308.514,216.497 308.250 C 216.809 307.774,216.819 307.072,216.517 306.886 C 216.389 306.807,216.203 306.874,216.104 307.035 M151.851 308.289 C 151.742 308.465,151.782 308.509,151.954 308.403 C 152.109 308.308,152.576 308.406,152.993 308.621 C 153.409 308.837,153.750 308.957,153.750 308.888 C 153.750 308.443,152.081 307.917,151.851 308.289 M101.886 308.983 C 101.807 309.111,101.884 309.304,102.058 309.413 C 102.462 309.665,103.100 309.767,102.877 309.544 C 102.784 309.451,102.577 309.370,102.417 309.364 C 102.256 309.357,102.153 309.217,102.188 309.051 C 102.262 308.694,102.089 308.654,101.886 308.983 M103.250 310.370 C 103.250 310.390,103.611 310.737,104.053 311.141 C 104.495 311.545,104.721 311.696,104.555 311.477 C 104.390 311.258,104.338 310.996,104.440 310.894 C 104.542 310.792,104.456 310.746,104.250 310.792 C 104.044 310.837,103.897 310.753,103.924 310.604 C 103.950 310.455,103.810 310.333,103.611 310.333 C 103.412 310.333,103.250 310.350,103.250 310.370 M158.139 310.523 C 158.216 310.648,158.448 310.750,158.655 310.750 C 158.874 310.750,158.956 310.869,158.851 311.039 C 158.740 311.219,158.783 311.259,158.965 311.146 C 159.345 310.912,159.141 310.595,158.504 310.428 C 158.226 310.356,158.062 310.399,158.139 310.523 M283.860 313.774 C 283.644 314.125,284.189 314.250,284.468 313.914 C 284.675 313.664,284.648 313.583,284.360 313.583 C 284.150 313.583,283.925 313.669,283.860 313.774 M281.065 316.071 C 281.098 316.238,280.976 316.344,280.794 316.306 C 280.612 316.269,280.537 316.358,280.629 316.506 C 280.744 316.692,280.922 316.677,281.210 316.458 C 281.438 316.284,281.658 316.124,281.698 316.102 C 281.739 316.080,281.599 315.996,281.389 315.915 C 281.163 315.828,281.030 315.893,281.065 316.071 M115.750 319.841 C 115.750 319.910,116.088 320.206,116.500 320.500 C 116.912 320.794,117.250 320.978,117.250 320.909 C 117.250 320.840,116.912 320.544,116.500 320.250 C 116.088 319.956,115.750 319.772,115.750 319.841 M119.514 322.392 C 119.675 322.586,119.914 322.678,120.045 322.597 C 120.336 322.417,120.120 322.172,119.604 322.096 C 119.303 322.052,119.284 322.114,119.514 322.392 M271.433 322.844 C 271.515 322.977,271.414 323.020,271.208 322.941 C 270.989 322.857,270.833 322.938,270.833 323.135 C 270.833 323.472,271.038 323.407,271.997 322.769 C 272.296 322.570,272.263 322.530,271.827 322.563 C 271.529 322.585,271.352 322.712,271.433 322.844 M268.315 324.379 C 268.553 324.641,267.242 325.525,266.914 325.322 C 266.781 325.240,266.753 325.303,266.852 325.462 C 267.037 325.762,267.420 325.627,268.350 324.931 C 268.739 324.641,268.762 324.539,268.475 324.373 C 268.283 324.261,268.210 324.264,268.315 324.379 M142.750 334.375 C 143.094 334.572,143.488 334.732,143.625 334.732 C 143.762 334.732,143.594 334.572,143.250 334.375 C 142.906 334.178,142.512 334.018,142.375 334.018 C 142.238 334.018,142.406 334.178,142.750 334.375 M224.125 341.500 C 224.400 341.618,224.850 341.712,225.125 341.708 C 225.527 341.702,225.502 341.661,225.000 341.500 C 224.145 341.226,223.488 341.226,224.125 341.500 M176.500 343.247 C 176.706 343.382,177.147 343.494,177.479 343.496 C 178.282 343.501,178.078 343.359,177.000 343.161 C 176.384 343.048,176.236 343.074,176.500 343.247 M209.839 348.415 C 210.026 348.748,209.779 349.547,209.536 349.398 C 209.448 349.343,209.358 349.597,209.336 349.961 C 209.301 350.558,209.347 350.528,209.795 349.658 C 210.185 348.899,210.226 348.631,209.984 348.408 C 209.754 348.197,209.718 348.198,209.839 348.415 M204.841 359.874 C 204.762 360.079,204.621 360.200,204.527 360.142 C 204.434 360.084,204.357 360.253,204.357 360.518 C 204.357 361.163,204.420 361.130,204.875 360.250 C 205.088 359.837,205.200 359.500,205.124 359.500 C 205.047 359.500,204.920 359.668,204.841 359.874 " stroke="none" fill="#FFFFFF" fill-rule="evenodd"></path><path id="path2" d="" stroke="none" fill="#FFFFFF" fill-rule="evenodd"></path><path id="path3" d="" stroke="none" fill="#FFFFFF" fill-rule="evenodd"></path><path id="path4" d="" stroke="none" fill="#FFFFFF" fill-rule="evenodd"></path></g></svg>