<svg id="svg" version="1.1" xmlns="http://www.w3.org/2000/svg" xmlns:xlink="http://www.w3.org/1999/xlink" width="400" height="400" viewBox="0, 0, 400,400"><g id="svgg"><path id="path0" d="M121.598 62.668 C 121.838 64.214,122.723 71.423,122.989 74.004 C 123.124 75.313,123.291 76.775,123.361 77.254 C 123.536 78.450,124.674 87.838,124.997 90.750 C 125.409 94.458,125.460 94.875,126.014 99.125 C 126.301 101.325,126.583 103.575,126.641 104.125 C 126.698 104.675,126.980 107.094,127.266 109.500 C 127.552 111.906,127.790 114.044,127.796 114.250 C 127.802 114.456,127.967 115.806,128.164 117.250 C 128.360 118.694,128.577 120.381,128.645 121.000 C 128.714 121.619,128.932 123.419,129.130 125.000 C 129.329 126.581,129.557 128.494,129.637 129.250 C 129.789 130.671,130.418 136.113,130.635 137.875 C 130.703 138.425,130.983 140.562,131.258 142.625 C 131.533 144.687,131.817 147.106,131.890 148.000 C 131.962 148.894,132.082 150.012,132.156 150.485 C 132.230 150.958,132.340 151.970,132.401 152.735 C 132.462 153.499,132.570 154.391,132.643 154.716 C 132.715 155.041,132.829 155.885,132.896 156.591 C 132.963 157.297,133.233 159.506,133.496 161.500 C 133.758 163.494,134.040 165.744,134.121 166.500 C 134.202 167.256,134.320 168.269,134.384 168.750 C 134.447 169.231,134.548 170.188,134.608 170.875 C 134.668 171.563,134.780 172.575,134.857 173.125 C 134.934 173.675,135.168 175.531,135.377 177.250 C 135.586 178.969,135.866 181.162,136.000 182.125 C 136.134 183.088,136.305 184.606,136.380 185.500 C 136.455 186.394,136.571 187.476,136.639 187.906 C 136.706 188.336,136.821 189.292,136.894 190.031 C 136.967 190.770,137.255 193.175,137.534 195.375 C 138.168 200.382,138.168 200.382,138.504 203.250 C 138.658 204.556,139.058 207.875,139.395 210.625 C 139.732 213.375,140.052 216.019,140.106 216.500 C 140.383 218.939,140.550 220.282,140.776 221.875 C 140.912 222.838,141.076 224.188,141.141 224.875 C 141.206 225.563,141.383 227.306,141.535 228.750 C 141.688 230.194,141.811 231.600,141.809 231.875 C 141.808 232.150,140.775 234.344,139.516 236.750 C 138.256 239.156,137.203 241.238,137.175 241.375 C 137.148 241.512,137.063 241.681,136.987 241.750 C 136.735 241.979,135.493 244.500,135.632 244.500 C 135.708 244.500,135.644 244.641,135.490 244.813 C 135.182 245.157,134.010 247.369,131.815 251.750 C 131.023 253.331,130.312 254.681,130.235 254.750 C 130.157 254.819,129.441 256.169,128.643 257.750 C 127.845 259.331,126.374 262.200,125.376 264.125 C 124.377 266.050,122.606 269.481,121.441 271.750 C 120.275 274.019,119.081 276.269,118.786 276.750 C 118.492 277.231,118.122 278.019,117.964 278.500 C 117.806 278.981,117.597 279.431,117.498 279.500 C 117.168 279.729,115.287 283.704,115.437 283.854 C 115.690 284.107,288.209 284.019,288.365 283.765 C 288.444 283.638,288.291 283.161,288.025 282.704 C 287.759 282.248,286.630 280.075,285.517 277.875 C 284.403 275.675,282.642 272.244,281.603 270.250 C 280.564 268.256,278.785 264.825,277.649 262.625 C 273.480 254.546,272.606 252.867,272.375 252.500 C 272.245 252.294,272.115 252.012,272.086 251.875 C 272.057 251.738,271.297 250.223,270.398 248.508 L 268.763 245.392 272.218 240.258 C 274.118 237.435,276.197 234.378,276.836 233.465 C 277.476 232.552,278.000 231.716,278.000 231.606 C 278.000 231.497,278.209 231.175,278.464 230.891 C 278.719 230.607,280.481 228.069,282.380 225.250 C 284.280 222.431,287.202 218.100,288.874 215.625 C 290.546 213.150,294.039 207.975,296.637 204.125 C 304.924 191.842,306.591 189.377,308.188 187.041 C 309.047 185.784,309.750 184.651,309.750 184.523 C 309.750 184.396,309.843 184.254,309.957 184.208 C 310.070 184.162,310.612 183.450,311.160 182.625 C 311.707 181.800,313.133 179.693,314.328 177.942 C 315.523 176.192,316.500 174.654,316.500 174.526 C 316.500 174.397,316.589 174.254,316.698 174.208 C 316.806 174.162,317.234 173.619,317.648 173.000 C 318.062 172.381,319.697 169.963,321.282 167.625 C 322.867 165.287,326.059 160.563,328.374 157.125 C 332.153 151.514,334.479 148.106,335.468 146.728 C 335.805 146.258,335.208 146.250,299.775 146.250 L 263.739 146.250 263.498 146.813 C 263.238 147.415,261.900 152.970,261.616 154.625 C 261.521 155.175,261.235 156.543,260.979 157.665 C 260.724 158.786,260.452 160.080,260.374 160.540 C 260.297 160.999,260.129 161.713,260.001 162.125 C 259.872 162.537,259.529 164.056,259.238 165.500 C 258.946 166.944,258.382 169.492,257.984 171.162 C 257.586 172.833,257.207 174.576,257.141 175.037 C 257.075 175.498,256.686 177.338,256.276 179.125 C 255.372 183.072,255.245 183.669,255.107 184.609 C 255.048 185.012,254.892 185.687,254.762 186.109 C 254.456 187.097,253.248 192.503,253.127 193.421 C 253.076 193.808,253.012 194.125,252.985 194.125 C 252.958 194.125,252.898 194.350,252.852 194.625 C 252.806 194.900,252.640 195.688,252.484 196.375 C 251.814 199.324,251.011 202.922,250.893 203.500 C 250.823 203.844,250.668 204.519,250.548 205.000 C 250.429 205.481,250.308 205.988,250.280 206.125 C 250.251 206.262,250.182 206.600,250.127 206.875 C 250.071 207.150,249.673 208.950,249.244 210.875 C 248.814 212.800,248.415 214.656,248.358 215.000 C 248.220 215.828,247.552 218.893,246.395 224.000 C 246.192 224.894,245.852 226.412,245.638 227.375 C 244.401 232.953,244.028 234.555,243.946 234.637 C 243.875 234.708,236.179 234.812,234.853 234.761 C 234.673 234.754,234.735 234.137,235.034 232.938 C 235.283 231.941,235.543 230.675,235.613 230.125 C 235.683 229.575,235.794 228.900,235.860 228.625 C 235.927 228.350,236.162 227.394,236.383 226.500 C 236.605 225.606,236.819 224.650,236.860 224.375 C 236.901 224.100,236.996 223.706,237.072 223.500 C 237.147 223.294,237.263 222.844,237.328 222.500 C 237.592 221.103,238.557 216.655,239.362 213.125 C 239.832 211.063,240.274 208.981,240.343 208.500 C 240.413 208.019,240.809 206.219,241.223 204.500 C 241.638 202.781,242.027 201.094,242.089 200.750 C 242.151 200.406,242.274 199.844,242.362 199.500 C 242.450 199.156,242.558 198.594,242.601 198.250 C 242.645 197.906,242.749 197.344,242.832 197.000 C 243.638 193.658,244.258 191.015,244.356 190.500 C 244.421 190.156,244.526 189.650,244.589 189.375 C 244.651 189.100,244.992 187.525,245.345 185.875 C 245.699 184.225,246.209 181.919,246.479 180.750 C 246.749 179.581,247.022 178.344,247.085 178.000 C 247.148 177.656,247.280 176.925,247.378 176.375 C 247.477 175.825,247.764 174.588,248.015 173.625 C 248.266 172.662,248.532 171.468,248.604 170.972 C 248.677 170.475,248.839 169.798,248.965 169.468 C 249.090 169.138,249.268 168.307,249.360 167.621 C 249.452 166.936,249.794 165.306,250.120 164.000 C 250.446 162.694,250.767 161.287,250.832 160.875 C 250.898 160.463,251.015 159.956,251.093 159.750 C 251.172 159.544,251.289 159.094,251.354 158.750 C 251.816 156.310,252.309 153.966,252.611 152.774 C 252.806 152.004,253.028 151.037,253.105 150.625 C 253.182 150.213,253.462 148.919,253.729 147.750 C 253.995 146.581,254.268 145.287,254.335 144.875 C 254.402 144.463,254.630 143.394,254.841 142.500 C 255.052 141.606,255.281 140.557,255.349 140.168 C 255.418 139.780,255.601 139.078,255.755 138.608 L 256.037 137.755 268.081 137.690 L 280.125 137.625 280.189 121.823 L 280.254 106.020 279.314 105.767 C 278.798 105.628,278.319 105.517,278.250 105.521 C 278.181 105.524,277.675 105.339,277.125 105.109 C 276.575 104.879,276.097 104.704,276.063 104.721 C 276.028 104.737,275.944 104.736,275.875 104.719 C 275.533 104.633,275.298 104.568,274.375 104.303 C 273.825 104.145,272.925 103.945,272.375 103.859 C 271.825 103.773,271.259 103.607,271.117 103.491 C 270.975 103.375,270.582 103.228,270.242 103.166 C 269.903 103.103,268.894 102.826,268.000 102.549 C 267.106 102.273,265.194 101.742,263.750 101.369 C 262.306 100.996,260.956 100.626,260.750 100.547 C 260.544 100.468,260.262 100.387,260.125 100.366 C 259.988 100.345,259.594 100.212,259.250 100.069 C 258.476 99.749,255.707 99.136,255.398 99.217 C 255.273 99.250,255.104 99.174,255.023 99.048 C 254.942 98.923,252.681 98.235,250.000 97.520 C 247.319 96.805,244.675 96.065,244.125 95.875 C 243.047 95.504,241.504 95.093,240.500 94.910 C 240.156 94.847,239.556 94.672,239.167 94.521 C 238.777 94.370,238.365 94.304,238.250 94.375 C 238.136 94.445,238.005 94.397,237.959 94.267 C 237.913 94.137,237.594 93.985,237.250 93.929 C 236.906 93.873,236.456 93.754,236.250 93.665 C 236.044 93.576,235.031 93.284,234.000 93.015 C 232.969 92.747,231.759 92.416,231.313 92.281 C 230.866 92.146,230.500 92.078,230.500 92.130 C 230.500 92.182,230.106 92.060,229.625 91.859 C 229.144 91.658,228.750 91.574,228.750 91.672 C 228.750 91.770,228.615 91.715,228.450 91.550 C 228.285 91.385,227.890 91.250,227.572 91.250 C 227.253 91.250,226.798 91.142,226.559 91.011 C 226.320 90.879,224.775 90.419,223.125 89.989 C 221.475 89.559,219.844 89.108,219.500 88.987 C 218.962 88.798,211.826 86.792,211.125 86.632 C 210.988 86.601,210.706 86.505,210.500 86.419 C 210.146 86.272,208.315 85.799,207.500 85.644 C 206.573 85.467,205.585 85.193,205.125 84.984 C 204.850 84.859,204.006 84.594,203.250 84.395 C 202.063 84.083,200.664 83.699,196.250 82.476 C 195.769 82.343,195.094 82.178,194.750 82.110 C 194.406 82.041,193.956 81.916,193.750 81.830 C 193.107 81.563,192.913 81.508,191.500 81.186 C 190.744 81.014,189.977 80.778,189.796 80.662 C 189.615 80.545,189.400 80.516,189.319 80.598 C 189.238 80.679,189.048 80.649,188.898 80.530 C 188.605 80.299,187.267 79.849,186.250 79.639 C 184.949 79.371,182.782 78.799,182.571 78.669 C 182.451 78.595,181.457 78.291,180.364 77.994 C 178.498 77.488,176.948 77.068,176.375 76.912 C 176.238 76.875,175.900 76.771,175.625 76.682 C 175.350 76.593,174.844 76.461,174.500 76.389 C 174.156 76.317,173.256 76.075,172.500 75.852 C 170.157 75.159,168.641 74.725,168.250 74.635 C 168.044 74.588,166.851 74.253,165.599 73.892 C 164.348 73.531,163.110 73.191,162.849 73.137 C 162.588 73.082,161.895 72.865,161.309 72.654 C 160.723 72.443,160.216 72.277,160.184 72.286 C 160.152 72.295,159.675 72.182,159.125 72.034 C 158.575 71.887,157.675 71.695,157.125 71.609 C 156.575 71.523,156.012 71.362,155.875 71.251 C 155.669 71.084,154.186 70.619,153.125 70.388 C 152.988 70.358,152.200 70.139,151.375 69.901 C 145.997 68.353,144.688 67.987,144.305 67.928 C 144.069 67.891,143.762 67.795,143.625 67.715 C 143.315 67.534,142.374 67.307,141.099 67.104 C 140.564 67.019,139.928 66.845,139.688 66.716 C 139.447 66.588,139.250 66.556,139.250 66.647 C 139.250 66.737,139.081 66.671,138.875 66.500 C 138.669 66.329,138.500 66.273,138.500 66.375 C 138.500 66.477,138.359 66.445,138.188 66.302 C 138.016 66.159,137.762 66.019,137.625 65.989 C 137.488 65.960,137.262 65.901,137.125 65.858 C 136.988 65.814,136.200 65.605,135.375 65.392 C 133.939 65.022,131.917 64.463,125.875 62.763 C 124.362 62.337,122.748 61.926,122.287 61.850 L 121.449 61.711 121.598 62.668 M70.559 290.375 C 70.794 290.826,73.017 293.518,73.988 294.527 C 74.201 294.748,74.994 295.694,75.750 296.629 C 76.506 297.564,80.325 302.165,84.235 306.852 C 88.146 311.540,91.766 315.881,92.280 316.500 C 92.794 317.119,94.490 319.144,96.049 321.000 C 97.608 322.856,99.163 324.723,99.504 325.148 C 99.846 325.573,100.969 326.928,102.000 328.159 C 103.031 329.390,104.255 330.870,104.720 331.449 L 105.565 332.500 199.735 332.500 C 274.692 332.500,293.985 332.436,294.301 332.188 C 294.520 332.016,295.393 331.031,296.241 330.000 C 297.089 328.969,298.211 327.619,298.732 327.000 C 299.677 325.880,305.721 318.639,307.625 316.347 C 308.175 315.684,312.956 309.953,318.250 303.611 C 330.115 289.396,329.250 290.455,329.250 290.139 C 329.250 289.954,290.597 289.875,199.775 289.875 C 70.379 289.875,70.299 289.875,70.559 290.375 " stroke="none" fill="#FFFFFF" fill-rule="evenodd"></path><path id="path1" d="M121.267 61.604 C 121.041 61.877,121.056 62.497,121.334 64.292 L 121.695 66.625 121.660 64.690 C 121.641 63.626,121.533 62.754,121.420 62.752 C 121.307 62.751,121.251 62.497,121.295 62.188 C 121.365 61.692,121.509 61.630,122.500 61.665 C 123.311 61.694,123.485 61.647,123.125 61.495 C 122.351 61.170,121.591 61.215,121.267 61.604 M127.066 62.673 C 127.308 62.736,127.431 62.909,127.339 63.058 C 127.243 63.214,127.289 63.255,127.450 63.156 C 127.794 62.943,129.039 63.234,128.881 63.491 C 128.817 63.594,129.071 63.629,129.445 63.569 C 129.858 63.503,130.009 63.544,129.829 63.673 C 129.647 63.802,129.937 63.890,130.579 63.900 C 131.529 63.914,131.430 63.853,129.500 63.227 C 128.331 62.849,127.206 62.543,127.000 62.548 C 126.751 62.555,126.773 62.597,127.066 62.673 M134.500 65.011 C 134.224 65.198,134.322 65.225,134.875 65.112 C 135.479 64.989,135.552 65.017,135.250 65.253 C 134.931 65.503,134.943 65.525,135.333 65.399 C 135.585 65.317,135.922 65.242,136.083 65.232 C 136.402 65.213,135.530 64.794,135.125 64.771 C 134.988 64.764,134.706 64.872,134.500 65.011 M137.625 65.750 C 138.313 66.004,139.044 66.211,139.250 66.211 C 139.456 66.211,139.063 66.004,138.375 65.750 C 137.688 65.496,136.956 65.289,136.750 65.289 C 136.544 65.289,136.938 65.496,137.625 65.750 M121.808 67.500 C 121.808 67.981,121.859 68.178,121.922 67.938 C 121.985 67.697,121.985 67.303,121.922 67.063 C 121.859 66.822,121.808 67.019,121.808 67.500 M142.610 67.274 C 142.497 67.457,142.527 67.513,142.686 67.415 C 143.084 67.169,144.517 67.520,144.332 67.819 C 144.244 67.962,144.294 68.003,144.444 67.910 C 144.743 67.725,147.021 68.262,146.885 68.485 C 146.839 68.562,147.211 68.639,147.713 68.657 C 148.398 68.681,148.065 68.512,146.375 67.977 C 143.307 67.005,142.831 66.916,142.610 67.274 M152.066 69.673 C 152.308 69.736,152.431 69.909,152.339 70.058 C 152.241 70.216,152.290 70.255,152.457 70.152 C 152.613 70.055,153.541 70.214,154.519 70.506 C 155.498 70.797,156.344 70.989,156.401 70.932 C 156.518 70.815,152.201 69.484,151.851 69.529 C 151.727 69.545,151.823 69.610,152.066 69.673 M159.601 72.039 C 159.495 72.211,159.532 72.260,159.694 72.160 C 159.993 71.975,162.272 72.512,162.134 72.735 C 162.087 72.812,162.290 72.884,162.586 72.895 C 162.883 72.907,163.463 72.989,163.875 73.078 C 164.287 73.167,163.669 72.913,162.500 72.514 C 160.059 71.681,159.844 71.646,159.601 72.039 M169.099 74.429 C 169.486 74.529,169.509 74.596,169.224 74.799 C 168.956 74.989,168.983 75.012,169.339 74.896 C 169.852 74.729,171.792 75.229,171.633 75.487 C 171.578 75.577,171.919 75.650,172.391 75.650 C 172.864 75.650,173.250 75.623,173.250 75.590 C 173.250 75.491,169.069 74.248,168.839 74.279 C 168.721 74.295,168.838 74.363,169.099 74.429 M122.792 76.397 C 122.769 76.684,123.035 79.103,123.383 81.772 C 124.020 86.649,124.393 88.636,124.059 85.375 C 123.961 84.412,123.879 83.158,123.878 82.586 C 123.876 82.015,123.775 81.610,123.652 81.685 C 123.527 81.763,123.484 81.251,123.555 80.515 C 123.635 79.684,123.597 79.329,123.452 79.541 C 123.302 79.759,123.249 79.472,123.299 78.711 C 123.341 78.071,123.298 77.596,123.203 77.654 C 123.108 77.713,122.987 77.336,122.932 76.818 C 122.878 76.299,122.815 76.110,122.792 76.397 M177.099 76.679 C 177.486 76.779,177.509 76.846,177.224 77.049 C 176.955 77.240,176.980 77.263,177.332 77.149 C 177.853 76.980,179.048 77.221,178.897 77.464 C 178.842 77.553,179.096 77.633,179.461 77.642 C 179.826 77.651,180.463 77.733,180.875 77.824 C 181.287 77.915,180.669 77.663,179.500 77.264 C 178.331 76.865,177.206 76.543,177.000 76.548 C 176.787 76.554,176.830 76.610,177.099 76.679 M184.500 79.011 C 184.225 79.197,184.319 79.220,184.850 79.096 C 185.409 78.966,185.529 79.001,185.374 79.252 C 185.239 79.471,185.271 79.517,185.472 79.392 C 185.636 79.291,186.566 79.449,187.537 79.744 C 188.508 80.039,189.348 80.235,189.404 80.180 C 189.488 80.095,185.285 78.742,184.976 78.754 C 184.920 78.756,184.706 78.872,184.500 79.011 M194.125 81.484 C 194.518 81.640,194.545 81.709,194.250 81.805 C 194.044 81.873,194.097 81.892,194.367 81.848 C 194.983 81.748,196.030 81.998,195.898 82.214 C 195.844 82.303,196.182 82.383,196.650 82.394 C 197.813 82.419,197.750 82.375,195.774 81.774 C 194.075 81.258,193.146 81.095,194.125 81.484 M202.099 83.679 C 202.486 83.779,202.509 83.846,202.224 84.049 C 201.953 84.241,201.976 84.264,202.326 84.151 C 202.952 83.949,205.860 84.776,205.445 85.039 C 205.056 85.286,205.452 85.283,206.085 85.034 C 206.501 84.870,202.450 83.439,201.826 83.529 C 201.715 83.545,201.838 83.613,202.099 83.679 M209.601 86.039 C 209.495 86.211,209.532 86.260,209.694 86.160 C 209.993 85.975,212.272 86.512,212.135 86.735 C 212.088 86.812,212.387 86.888,212.801 86.903 C 213.214 86.918,213.628 87.053,213.720 87.202 C 213.813 87.352,214.030 87.386,214.204 87.278 C 214.399 87.158,213.669 86.828,212.298 86.417 C 209.736 85.647,209.834 85.661,209.601 86.039 M217.648 88.212 C 217.561 88.353,217.724 88.395,218.039 88.312 C 218.369 88.226,218.518 88.269,218.422 88.425 C 218.325 88.581,218.514 88.630,218.920 88.553 C 219.340 88.472,219.516 88.522,219.412 88.690 C 219.309 88.856,219.458 88.908,219.812 88.830 C 220.163 88.753,220.263 88.787,220.079 88.920 C 219.895 89.053,220.180 89.143,220.829 89.158 L 221.875 89.181 220.601 88.744 C 218.741 88.105,217.817 87.939,217.648 88.212 M227.125 90.734 C 227.518 90.890,227.545 90.959,227.250 91.055 C 227.044 91.122,227.102 91.142,227.380 91.098 C 227.932 91.012,230.088 91.578,229.906 91.762 C 229.844 91.824,230.121 91.887,230.522 91.902 C 231.624 91.942,231.435 91.837,229.151 91.140 C 227.148 90.529,226.062 90.311,227.125 90.734 M234.639 92.977 C 234.562 93.101,234.742 93.140,235.039 93.062 C 235.441 92.957,235.526 93.005,235.375 93.249 C 235.248 93.455,235.271 93.517,235.436 93.415 C 235.750 93.221,237.284 93.493,237.146 93.718 C 237.093 93.804,237.387 93.888,237.801 93.903 C 238.214 93.918,238.628 94.053,238.720 94.202 C 238.813 94.352,239.030 94.386,239.204 94.278 C 239.399 94.158,238.669 93.828,237.298 93.417 C 234.785 92.662,234.829 92.670,234.639 92.977 M124.808 93.750 C 124.808 94.231,124.859 94.428,124.922 94.188 C 124.985 93.947,124.985 93.553,124.922 93.313 C 124.859 93.072,124.808 93.269,124.808 93.750 M125.063 95.625 C 125.066 96.175,125.117 96.371,125.177 96.060 C 125.237 95.749,125.234 95.299,125.172 95.060 C 125.109 94.821,125.060 95.075,125.063 95.625 M242.316 94.923 C 242.558 94.986,242.681 95.159,242.589 95.308 C 242.493 95.463,242.539 95.505,242.699 95.407 C 243.128 95.142,245.365 95.771,244.958 96.043 C 244.749 96.182,244.895 96.202,245.350 96.096 C 245.831 95.984,246.020 96.016,245.912 96.190 C 245.807 96.359,245.951 96.399,246.312 96.302 C 246.874 96.150,243.158 94.775,242.250 94.798 C 242.001 94.805,242.023 94.847,242.316 94.923 M125.427 98.375 C 125.486 99.200,125.737 101.281,125.983 103.000 L 126.432 106.125 126.403 104.088 C 126.388 102.968,126.277 102.111,126.158 102.183 C 126.039 102.256,125.985 101.860,126.038 101.304 C 126.091 100.747,126.035 100.353,125.914 100.428 C 125.793 100.503,125.735 100.054,125.785 99.431 C 125.834 98.808,125.798 98.346,125.703 98.404 C 125.608 98.463,125.483 98.142,125.425 97.693 C 125.367 97.243,125.368 97.550,125.427 98.375 M249.750 97.261 C 249.475 97.447,249.569 97.470,250.100 97.346 C 250.581 97.234,250.770 97.266,250.662 97.440 C 250.558 97.608,250.699 97.651,251.049 97.560 C 251.573 97.423,251.576 97.407,251.112 97.226 C 250.437 96.962,250.183 96.968,249.750 97.261 M252.066 97.673 C 252.308 97.736,252.460 97.864,252.403 97.956 C 252.346 98.049,252.637 98.138,253.051 98.153 C 253.464 98.168,253.875 98.281,253.964 98.403 C 254.053 98.525,254.519 98.644,255.000 98.667 C 255.659 98.699,255.413 98.561,254.000 98.106 C 252.969 97.774,252.012 97.515,251.875 97.530 C 251.738 97.546,251.823 97.610,252.066 97.673 M259.316 99.673 C 259.558 99.736,259.697 99.884,259.624 100.002 C 259.551 100.119,259.624 100.297,259.785 100.396 C 259.967 100.509,260.010 100.469,259.899 100.289 C 259.698 99.963,259.866 99.937,260.709 100.163 C 261.151 100.282,261.211 100.373,260.959 100.542 C 260.746 100.684,260.874 100.707,261.313 100.605 C 261.736 100.507,262.000 100.549,262.000 100.715 C 262.000 100.863,262.149 100.927,262.332 100.857 C 262.514 100.787,262.980 100.850,263.367 100.997 C 263.753 101.144,264.121 101.213,264.183 101.150 C 264.307 101.026,259.461 99.482,259.097 99.529 C 258.975 99.545,259.073 99.610,259.316 99.673 M267.316 101.923 C 267.558 101.986,267.681 102.159,267.589 102.308 C 267.493 102.464,267.539 102.505,267.700 102.406 C 268.102 102.157,269.277 102.505,269.085 102.815 C 268.987 102.974,269.044 103.002,269.231 102.887 C 269.401 102.782,270.045 102.837,270.662 103.010 C 271.430 103.225,271.680 103.390,271.454 103.533 C 271.194 103.699,271.203 103.742,271.500 103.742 C 271.706 103.742,272.020 103.651,272.196 103.539 C 272.492 103.351,267.737 101.704,267.116 101.779 C 266.983 101.795,267.073 101.860,267.316 101.923 M274.915 104.188 C 274.852 104.291,275.211 104.392,275.713 104.413 C 276.410 104.442,276.507 104.402,276.125 104.243 C 275.476 103.973,275.058 103.954,274.915 104.188 M277.066 104.673 C 277.308 104.736,277.431 104.909,277.339 105.058 C 277.243 105.214,277.289 105.255,277.450 105.156 C 277.856 104.905,279.027 105.255,278.832 105.569 C 278.728 105.738,278.827 105.774,279.104 105.667 C 279.344 105.575,279.672 105.494,279.833 105.487 C 279.994 105.479,279.450 105.256,278.625 104.990 C 277.800 104.725,277.012 104.519,276.875 104.533 C 276.738 104.547,276.823 104.610,277.066 104.673 M280.618 121.875 C 280.618 130.537,280.649 134.045,280.687 129.669 C 280.726 125.294,280.726 118.206,280.687 113.919 C 280.649 109.632,280.618 113.213,280.618 121.875 M127.308 114.500 C 127.308 114.981,127.359 115.178,127.422 114.938 C 127.485 114.697,127.485 114.303,127.422 114.063 C 127.359 113.822,127.308 114.019,127.308 114.500 M127.592 115.620 C 127.443 116.010,128.682 126.015,128.907 126.241 C 128.980 126.313,128.946 125.641,128.833 124.748 C 128.720 123.856,128.627 122.658,128.626 122.086 C 128.625 121.515,128.528 121.108,128.410 121.181 C 128.291 121.254,128.235 120.804,128.285 120.181 C 128.334 119.558,128.278 119.108,128.160 119.181 C 128.041 119.254,127.985 118.804,128.035 118.181 C 128.084 117.558,128.027 117.108,127.908 117.182 C 127.789 117.256,127.736 116.851,127.790 116.283 C 127.893 115.202,127.831 114.997,127.592 115.620 M129.558 133.250 C 129.558 133.731,129.609 133.928,129.672 133.688 C 129.735 133.447,129.735 133.053,129.672 132.813 C 129.609 132.572,129.558 132.769,129.558 133.250 M129.794 134.725 C 129.753 135.279,130.914 144.563,131.094 145.125 C 131.138 145.262,131.224 144.961,131.285 144.455 C 131.347 143.939,131.296 143.597,131.168 143.675 C 131.041 143.754,130.984 143.372,131.038 142.804 C 131.091 142.247,131.035 141.853,130.914 141.928 C 130.793 142.003,130.735 141.554,130.785 140.931 C 130.834 140.308,130.805 139.841,130.719 139.894 C 130.493 140.034,130.200 136.684,130.388 136.110 C 130.513 135.730,130.492 135.703,130.290 135.988 C 130.095 136.263,130.010 136.083,129.935 135.238 C 129.882 134.626,129.818 134.395,129.794 134.725 M268.125 137.750 L 256.125 137.882 268.188 137.941 C 276.102 137.980,280.250 137.914,280.250 137.750 C 280.250 137.613,280.222 137.526,280.188 137.559 C 280.153 137.591,274.725 137.677,268.125 137.750 M256.000 138.765 C 256.000 139.090,255.894 139.214,255.711 139.101 C 255.538 138.994,255.490 139.032,255.592 139.196 C 255.824 139.572,255.490 141.523,255.222 141.357 C 255.103 141.284,255.069 141.388,255.146 141.589 C 255.223 141.790,255.169 142.377,255.027 142.894 C 254.884 143.410,254.864 143.730,254.982 143.604 C 255.099 143.478,255.442 142.279,255.743 140.940 L 256.290 138.505 268.207 138.437 L 280.125 138.370 268.063 138.310 C 256.032 138.250,256.000 138.251,256.000 138.765 M253.868 147.513 C 253.949 147.727,253.673 149.347,253.253 151.113 C 252.833 152.879,252.537 154.371,252.595 154.428 C 252.652 154.486,253.060 152.996,253.502 151.118 C 254.113 148.518,254.234 147.635,254.012 147.414 C 253.791 147.195,253.756 147.218,253.868 147.513 M334.649 148.040 C 334.720 148.153,334.518 148.514,334.201 148.841 C 333.691 149.368,333.354 150.000,333.583 150.000 C 333.628 150.000,334.015 149.512,334.443 148.917 C 334.963 148.193,335.105 147.833,334.872 147.833 C 334.679 147.833,334.579 147.926,334.649 148.040 M262.146 149.891 C 261.900 150.932,261.756 151.839,261.825 151.908 C 261.894 151.977,262.028 151.576,262.122 151.016 C 262.217 150.456,262.369 150.043,262.460 150.098 C 262.551 150.153,262.648 149.703,262.676 149.099 C 262.746 147.580,262.660 147.709,262.146 149.891 M332.543 150.979 C 332.601 151.510,332.459 151.756,332.188 151.600 C 332.016 151.501,331.956 151.510,332.055 151.619 C 332.154 151.729,331.991 152.161,331.693 152.579 C 331.395 152.998,331.285 153.258,331.448 153.157 C 332.027 152.799,333.232 150.833,332.872 150.833 C 332.683 150.833,332.535 150.899,332.543 150.979 M131.808 152.000 C 131.808 152.481,131.859 152.678,131.922 152.438 C 131.985 152.197,131.985 151.803,131.922 151.563 C 131.859 151.322,131.808 151.519,131.808 152.000 M132.043 153.625 C 132.021 153.900,132.283 156.206,132.625 158.750 C 132.967 161.294,133.261 163.544,133.278 163.750 C 133.295 163.956,133.385 163.787,133.478 163.375 C 133.570 162.963,133.572 162.569,133.481 162.500 C 133.235 162.314,132.671 157.317,132.844 156.865 C 132.939 156.617,132.893 156.537,132.718 156.645 C 132.528 156.762,132.471 156.499,132.538 155.804 C 132.591 155.247,132.555 154.841,132.458 154.901 C 132.360 154.961,132.237 154.586,132.182 154.068 C 132.128 153.549,132.066 153.350,132.043 153.625 M330.118 154.701 C 330.182 154.766,329.991 155.161,329.693 155.579 C 329.395 155.998,329.281 156.260,329.439 156.163 C 330.043 155.790,330.748 154.583,330.362 154.583 C 330.163 154.583,330.053 154.636,330.118 154.701 M251.618 157.763 C 251.699 157.977,251.423 159.597,251.003 161.363 C 250.583 163.129,250.288 164.621,250.347 164.680 C 250.405 164.739,250.816 163.252,251.259 161.376 C 251.881 158.743,251.997 157.897,251.767 157.670 C 251.539 157.443,251.504 157.465,251.618 157.763 M327.793 157.979 C 327.847 158.475,327.715 158.758,327.494 158.621 C 327.353 158.534,327.254 158.556,327.273 158.669 C 327.369 159.218,327.223 159.514,326.938 159.350 C 326.766 159.251,326.708 159.262,326.810 159.374 C 326.912 159.487,326.856 159.752,326.685 159.962 C 326.440 160.265,326.440 160.307,326.684 160.160 C 327.267 159.810,328.489 157.833,328.122 157.833 C 327.933 157.833,327.785 157.899,327.793 157.979 M259.771 160.646 C 259.455 161.957,259.265 163.098,259.348 163.181 C 259.432 163.265,259.500 163.083,259.500 162.777 C 259.500 162.471,259.596 162.280,259.714 162.353 C 259.832 162.425,259.879 162.179,259.819 161.805 C 259.731 161.254,259.765 161.196,259.997 161.500 C 260.232 161.808,260.256 161.779,260.132 161.336 C 260.049 161.039,260.112 160.276,260.273 159.639 C 260.433 159.002,260.515 158.432,260.455 158.371 C 260.395 158.311,260.087 159.335,259.771 160.646 M325.175 162.313 C 324.472 163.262,324.182 163.750,324.318 163.750 C 324.371 163.750,324.779 163.244,325.223 162.625 C 325.668 162.006,325.974 161.500,325.903 161.500 C 325.833 161.500,325.505 161.866,325.175 162.313 M322.679 165.998 C 322.487 166.273,322.275 166.441,322.207 166.373 C 322.139 166.306,322.083 166.419,322.083 166.625 C 322.083 167.140,322.139 167.108,322.750 166.250 C 323.044 165.838,323.227 165.500,323.156 165.500 C 323.086 165.500,322.871 165.724,322.679 165.998 M249.350 167.933 C 249.583 168.345,249.255 170.032,248.975 169.860 C 248.855 169.785,248.817 169.885,248.893 170.081 C 248.968 170.277,248.787 171.472,248.490 172.736 C 248.193 174.000,247.999 175.082,248.057 175.141 C 248.116 175.200,248.535 173.664,248.987 171.729 C 249.647 168.906,249.747 168.152,249.493 167.918 C 249.250 167.693,249.217 167.696,249.350 167.933 M257.531 170.906 C 257.227 172.229,257.032 173.365,257.097 173.430 C 257.162 173.495,257.350 172.865,257.514 172.029 C 257.679 171.193,257.883 170.552,257.969 170.604 C 258.055 170.655,258.148 170.203,258.176 169.599 C 258.249 168.011,258.150 168.213,257.531 170.906 M320.679 168.998 C 320.487 169.273,320.238 169.413,320.125 169.311 C 320.012 169.209,320.001 169.266,320.101 169.439 C 320.203 169.617,320.130 169.812,319.933 169.888 C 319.740 169.961,319.583 170.185,319.583 170.386 C 319.583 170.877,319.559 170.898,320.473 169.625 C 320.918 169.006,321.224 168.500,321.155 168.500 C 321.085 168.500,320.871 168.724,320.679 168.998 M134.058 170.750 C 134.058 171.231,134.109 171.428,134.172 171.188 C 134.235 170.947,134.235 170.553,134.172 170.313 C 134.109 170.072,134.058 170.269,134.058 170.750 M318.616 171.700 C 318.853 171.937,318.216 172.759,317.925 172.592 C 317.760 172.497,317.710 172.513,317.813 172.627 C 317.917 172.742,317.821 173.111,317.600 173.448 C 316.935 174.462,317.577 173.874,318.428 172.687 C 318.976 171.925,319.110 171.583,318.861 171.583 C 318.662 171.583,318.552 171.636,318.616 171.700 M134.308 172.750 C 134.308 173.231,134.359 173.428,134.422 173.188 C 134.485 172.947,134.485 172.553,134.422 172.313 C 134.359 172.072,134.308 172.269,134.308 172.750 M134.587 173.884 C 134.506 174.095,134.671 175.867,134.954 177.821 C 135.237 179.776,135.391 180.531,135.297 179.500 C 135.202 178.469,135.135 177.010,135.147 176.258 C 135.163 175.318,135.105 175.045,134.962 175.383 C 134.819 175.720,134.773 175.502,134.816 174.688 C 134.882 173.437,134.829 173.252,134.587 173.884 M316.027 175.875 C 315.582 176.494,315.132 177.000,315.026 177.000 C 314.920 177.000,314.833 177.172,314.833 177.383 C 314.833 177.807,314.843 177.798,315.914 176.375 C 316.765 175.244,317.074 174.750,316.932 174.750 C 316.879 174.750,316.471 175.256,316.027 175.875 M313.699 179.313 C 312.973 180.280,312.685 180.750,312.818 180.750 C 312.871 180.750,313.279 180.244,313.723 179.625 C 314.645 178.341,314.625 178.079,313.699 179.313 M255.151 181.688 C 254.607 184.023,254.523 184.753,254.741 185.250 L 255.014 185.875 254.889 185.250 C 254.730 184.454,255.000 182.720,255.258 182.880 C 255.365 182.946,255.394 182.776,255.323 182.500 C 255.246 182.209,255.315 182.000,255.486 182.000 C 255.647 182.000,255.707 181.882,255.618 181.738 C 255.529 181.594,255.591 180.913,255.756 180.225 C 255.921 179.536,256.006 178.923,255.945 178.862 C 255.884 178.801,255.527 180.073,255.151 181.688 M246.520 181.932 C 246.335 182.788,246.115 183.447,246.030 183.395 C 245.945 183.344,245.859 183.825,245.839 184.464 C 245.807 185.490,245.872 185.363,246.398 183.375 C 246.726 182.137,246.963 180.956,246.925 180.750 C 246.887 180.544,246.705 181.076,246.520 181.932 M135.656 181.385 C 135.570 181.608,135.513 182.091,135.529 182.458 C 135.550 182.958,135.606 182.874,135.752 182.125 C 135.959 181.062,135.914 180.712,135.656 181.385 M311.650 182.040 C 311.720 182.154,311.478 182.670,311.111 183.186 L 310.445 184.125 311.110 183.375 C 312.071 182.291,312.297 181.833,311.872 181.833 C 311.680 181.833,311.580 181.926,311.650 182.040 M308.924 186.374 C 308.598 186.854,308.275 187.192,308.207 187.124 C 308.139 187.056,308.083 187.169,308.083 187.375 C 308.083 187.918,308.145 187.868,309.000 186.625 C 309.426 186.006,309.716 185.500,309.646 185.500 C 309.576 185.500,309.251 185.893,308.924 186.374 M307.202 188.966 C 307.022 189.223,306.791 189.448,306.688 189.466 C 306.584 189.485,306.528 189.533,306.563 189.573 C 306.597 189.614,306.416 189.965,306.162 190.354 C 305.907 190.743,305.797 191.001,305.917 190.926 C 306.208 190.747,307.817 188.500,307.655 188.500 C 307.585 188.500,307.381 188.710,307.202 188.966 M252.748 192.632 C 252.223 194.870,252.031 196.131,252.192 196.292 C 252.353 196.453,252.393 196.303,252.308 195.857 C 252.218 195.388,252.266 195.230,252.461 195.351 C 252.636 195.459,252.693 195.394,252.612 195.180 C 252.539 194.990,252.767 193.617,253.118 192.129 C 253.470 190.642,253.711 189.378,253.654 189.321 C 253.597 189.264,253.190 190.754,252.748 192.632 M136.558 191.500 C 136.558 191.981,136.609 192.178,136.672 191.938 C 136.735 191.697,136.735 191.303,136.672 191.063 C 136.609 190.822,136.558 191.019,136.558 191.500 M244.500 191.223 C 244.500 191.580,244.397 191.716,244.211 191.601 C 244.028 191.488,243.991 191.533,244.110 191.725 C 244.213 191.892,244.104 192.815,243.869 193.776 C 243.633 194.737,243.489 195.572,243.547 195.631 C 243.606 195.690,243.913 194.665,244.229 193.354 C 244.545 192.043,244.735 190.902,244.652 190.819 C 244.568 190.735,244.500 190.917,244.500 191.223 M304.555 192.369 C 304.654 192.479,304.506 192.891,304.226 193.284 C 303.945 193.678,303.772 194.000,303.841 194.000 C 304.223 194.000,304.987 192.522,304.692 192.352 C 304.518 192.252,304.456 192.260,304.555 192.369 M136.927 194.375 C 136.986 195.200,137.245 197.281,137.503 199.000 C 137.784 200.874,137.904 201.375,137.803 200.250 C 137.711 199.219,137.633 197.908,137.630 197.336 C 137.627 196.765,137.528 196.358,137.410 196.431 C 137.291 196.504,137.235 196.054,137.285 195.431 C 137.334 194.808,137.298 194.346,137.203 194.404 C 137.108 194.463,136.983 194.142,136.925 193.693 C 136.867 193.243,136.868 193.550,136.927 194.375 M302.429 195.998 C 302.237 196.273,301.988 196.413,301.875 196.311 C 301.762 196.209,301.746 196.259,301.840 196.422 C 301.934 196.586,301.811 196.835,301.568 196.977 C 301.324 197.119,301.223 197.238,301.343 197.242 C 301.463 197.247,301.407 197.440,301.218 197.673 C 300.992 197.952,300.980 198.033,301.184 197.910 C 301.526 197.705,303.097 195.500,302.901 195.500 C 302.834 195.500,302.621 195.724,302.429 195.998 M299.868 199.451 C 299.932 199.516,299.782 199.863,299.534 200.222 C 298.410 201.847,298.621 201.852,299.807 200.229 C 300.271 199.594,300.358 199.333,300.106 199.333 C 299.910 199.333,299.803 199.386,299.868 199.451 M250.491 202.874 C 249.952 205.159,249.769 206.369,249.937 206.537 C 250.105 206.705,250.145 206.563,250.058 206.107 C 249.959 205.591,250.007 205.475,250.252 205.626 C 250.468 205.760,250.517 205.729,250.397 205.535 C 250.180 205.185,250.742 202.500,251.032 202.500 C 251.143 202.500,251.174 202.343,251.100 202.151 C 251.027 201.959,251.094 201.329,251.250 200.751 C 251.405 200.173,251.480 199.646,251.415 199.581 C 251.350 199.516,250.934 200.998,250.491 202.874 M242.250 201.473 C 242.250 201.830,242.147 201.966,241.961 201.851 C 241.778 201.738,241.741 201.783,241.860 201.975 C 241.963 202.142,241.854 203.065,241.619 204.026 C 241.383 204.987,241.239 205.822,241.297 205.881 C 241.356 205.940,241.663 204.915,241.979 203.604 C 242.295 202.293,242.485 201.152,242.402 201.069 C 242.318 200.985,242.250 201.167,242.250 201.473 M297.375 203.363 C 296.706 204.130,296.352 204.750,296.583 204.750 C 296.628 204.750,297.029 204.244,297.473 203.625 C 298.438 202.282,298.401 202.186,297.375 203.363 M295.591 206.124 C 295.512 206.329,295.330 206.424,295.185 206.335 C 295.031 206.240,294.997 206.293,295.102 206.463 C 295.203 206.626,295.110 206.819,294.892 206.903 C 294.678 206.985,294.560 207.145,294.631 207.259 C 294.701 207.373,294.644 207.536,294.504 207.622 C 294.364 207.709,294.250 207.907,294.250 208.063 C 294.250 208.219,294.539 207.960,294.893 207.486 C 295.677 206.436,296.066 205.750,295.876 205.750 C 295.798 205.750,295.670 205.918,295.591 206.124 M293.133 209.512 C 293.193 209.611,292.994 210.008,292.689 210.396 C 292.384 210.784,292.268 211.019,292.430 210.918 C 293.026 210.550,293.750 209.333,293.373 209.333 C 293.180 209.333,293.072 209.414,293.133 209.512 M138.808 210.250 C 138.808 210.731,138.859 210.928,138.922 210.688 C 138.985 210.447,138.985 210.053,138.922 209.813 C 138.859 209.572,138.808 209.769,138.808 210.250 M248.781 210.912 C 247.876 214.373,247.470 216.570,247.693 216.793 C 247.853 216.953,247.893 216.802,247.808 216.357 C 247.718 215.888,247.766 215.730,247.961 215.851 C 248.134 215.958,248.194 215.895,248.115 215.690 C 248.044 215.504,248.263 214.179,248.603 212.744 C 249.183 210.287,249.325 208.831,248.781 210.912 M240.000 211.723 C 240.000 212.080,239.897 212.216,239.711 212.101 C 239.528 211.988,239.491 212.033,239.610 212.225 C 239.805 212.542,239.056 216.032,238.746 216.250 C 238.648 216.319,238.641 216.578,238.729 216.825 C 238.831 217.109,239.153 216.202,239.598 214.374 C 239.988 212.778,240.237 211.404,240.153 211.320 C 240.069 211.236,240.000 211.417,240.000 211.723 M139.177 213.125 C 139.236 213.950,139.495 216.031,139.753 217.750 C 140.034 219.624,140.154 220.125,140.053 219.000 C 139.961 217.969,139.883 216.658,139.880 216.086 C 139.877 215.515,139.778 215.108,139.660 215.181 C 139.541 215.254,139.485 214.804,139.535 214.181 C 139.584 213.558,139.548 213.096,139.453 213.154 C 139.358 213.213,139.233 212.892,139.175 212.443 C 139.117 211.993,139.118 212.300,139.177 213.125 M290.109 214.168 C 289.724 214.673,289.537 215.007,289.693 214.910 C 290.013 214.712,291.095 213.250,290.922 213.250 C 290.860 213.250,290.494 213.663,290.109 214.168 M288.572 216.563 C 287.488 217.979,286.916 218.825,287.130 218.695 C 287.426 218.517,289.086 216.250,288.921 216.250 C 288.861 216.250,288.704 216.391,288.572 216.563 M285.772 220.688 C 285.158 221.586,285.120 221.693,285.617 221.125 C 286.279 220.370,286.846 219.500,286.676 219.500 C 286.626 219.500,286.219 220.034,285.772 220.688 M140.346 221.110 C 140.270 221.309,140.252 221.674,140.306 221.923 C 140.367 222.205,140.452 222.070,140.533 221.563 C 140.670 220.711,140.581 220.498,140.346 221.110 M245.886 223.895 C 245.440 225.784,245.285 226.885,245.444 227.044 C 245.603 227.203,245.648 227.041,245.574 226.581 C 245.482 226.005,245.515 225.944,245.754 226.250 C 246.002 226.567,246.023 226.552,245.894 226.154 C 245.693 225.539,245.991 223.965,246.275 224.140 C 246.395 224.215,246.435 224.120,246.362 223.930 C 246.289 223.740,246.350 223.044,246.498 222.384 C 246.646 221.724,246.723 221.140,246.670 221.087 C 246.616 221.033,246.264 222.297,245.886 223.895 M237.746 222.021 C 237.743 222.515,237.694 222.556,237.480 222.250 C 237.272 221.954,237.249 221.990,237.370 222.420 C 237.454 222.720,237.343 223.659,237.123 224.506 C 236.904 225.354,236.762 226.160,236.807 226.297 C 236.853 226.434,237.152 225.460,237.472 224.133 C 237.792 222.806,237.985 221.652,237.902 221.569 C 237.818 221.485,237.748 221.689,237.746 222.021 M283.375 224.113 C 282.706 224.880,282.352 225.500,282.583 225.500 C 282.628 225.500,283.029 224.994,283.473 224.375 C 284.438 223.032,284.401 222.936,283.375 224.113 M281.679 226.748 C 281.487 227.023,281.256 227.191,281.165 227.123 C 281.074 227.056,281.053 227.072,281.118 227.159 C 281.182 227.247,280.991 227.661,280.693 228.079 C 280.395 228.498,280.261 228.773,280.394 228.691 C 280.700 228.501,282.325 226.250,282.155 226.250 C 282.085 226.250,281.871 226.474,281.679 226.748 M141.058 229.000 C 141.058 229.481,141.109 229.678,141.172 229.438 C 141.235 229.197,141.235 228.803,141.172 228.563 C 141.109 228.322,141.058 228.519,141.058 229.000 M279.193 230.395 C 278.843 230.887,278.462 231.309,278.346 231.333 C 278.231 231.356,278.114 231.544,278.086 231.750 C 278.036 232.131,279.335 230.738,279.776 229.938 C 280.182 229.201,279.866 229.450,279.193 230.395 M141.308 231.000 C 141.308 231.481,141.359 231.678,141.422 231.438 C 141.485 231.197,141.485 230.803,141.422 230.563 C 141.359 230.322,141.308 230.519,141.308 231.000 M235.500 232.265 C 235.500 232.548,235.416 232.728,235.313 232.665 C 235.209 232.603,235.108 232.990,235.087 233.526 L 235.050 234.500 239.493 234.500 L 243.936 234.500 244.101 233.467 C 244.192 232.898,244.210 232.377,244.142 232.308 C 244.073 232.239,243.942 232.648,243.851 233.217 L 243.686 234.250 239.441 234.250 C 235.865 234.250,235.218 234.194,235.334 233.893 C 235.586 233.234,235.807 231.750,235.653 231.750 C 235.569 231.750,235.500 231.982,235.500 232.265 M141.144 232.417 C 141.056 232.646,141.106 232.955,141.257 233.104 C 141.454 233.300,141.479 233.242,141.347 232.896 C 141.221 232.565,141.254 232.473,141.455 232.597 C 141.644 232.714,141.693 232.641,141.595 232.388 C 141.407 231.897,141.341 231.901,141.144 232.417 M276.625 234.113 C 275.956 234.880,275.602 235.500,275.833 235.500 C 275.878 235.500,276.279 234.994,276.723 234.375 C 277.688 233.032,277.651 232.936,276.625 234.113 M139.650 235.499 C 139.275 236.187,139.022 236.750,139.088 236.750 C 139.255 236.750,140.527 234.444,140.419 234.336 C 140.371 234.287,140.024 234.811,139.650 235.499 M274.773 236.419 C 274.869 236.968,274.723 237.264,274.438 237.100 C 274.266 237.001,274.206 237.010,274.305 237.119 C 274.404 237.229,274.242 237.669,273.945 238.097 C 273.473 238.778,273.466 238.823,273.890 238.454 C 274.640 237.804,275.301 236.561,274.998 236.374 C 274.855 236.285,274.754 236.306,274.773 236.419 M137.690 239.313 C 137.047 240.297,136.204 242.058,136.449 241.906 C 136.579 241.826,136.825 241.422,136.996 241.009 C 137.168 240.595,137.425 240.329,137.568 240.417 C 137.718 240.510,137.752 240.456,137.649 240.289 C 137.551 240.130,137.608 240.000,137.777 240.000 C 137.945 240.000,138.012 239.929,137.925 239.842 C 137.839 239.755,137.880 239.474,138.018 239.217 C 138.367 238.565,138.134 238.632,137.690 239.313 M271.875 241.113 C 271.206 241.880,270.852 242.500,271.083 242.500 C 271.128 242.500,271.529 241.994,271.973 241.375 C 272.938 240.032,272.901 239.936,271.875 241.113 M270.127 243.504 C 270.185 243.598,269.890 244.142,269.470 244.712 C 269.050 245.283,268.827 245.750,268.973 245.750 C 269.327 245.750,270.278 247.633,270.052 247.884 C 269.955 247.992,270.020 247.997,270.197 247.894 C 270.446 247.751,270.375 247.450,269.889 246.580 L 269.259 245.453 269.988 244.393 C 270.484 243.672,270.606 243.333,270.369 243.333 C 270.178 243.333,270.069 243.410,270.127 243.504 M135.000 244.500 C 134.719 245.050,134.546 245.500,134.615 245.500 C 134.684 245.500,134.969 245.050,135.250 244.500 C 135.531 243.950,135.704 243.500,135.635 243.500 C 135.566 243.500,135.281 243.950,135.000 244.500 M134.125 246.000 C 134.025 246.161,134.056 246.406,134.194 246.544 C 134.360 246.710,134.504 246.696,134.625 246.500 C 134.725 246.339,134.694 246.094,134.556 245.956 C 134.390 245.790,134.246 245.804,134.125 246.000 M132.933 248.563 C 131.796 250.530,131.743 250.667,132.128 250.667 C 132.320 250.667,132.422 250.576,132.354 250.466 C 132.183 250.189,132.952 248.750,133.271 248.750 C 133.413 248.750,133.460 248.637,133.375 248.500 C 133.290 248.363,133.321 248.250,133.444 248.250 C 133.566 248.250,133.667 248.081,133.667 247.875 C 133.667 247.335,133.615 247.384,132.933 248.563 M271.353 249.938 C 271.578 250.384,271.704 250.750,271.631 250.750 C 271.559 250.750,271.725 250.975,272.000 251.250 C 272.552 251.802,272.680 252.383,272.188 252.100 C 272.016 252.001,271.963 252.016,272.070 252.134 C 272.838 252.978,272.929 252.310,272.219 251.041 C 271.334 249.462,270.715 248.673,271.353 249.938 M130.433 253.313 C 129.463 254.990,129.120 255.753,129.611 255.140 C 129.825 254.873,130.002 254.535,130.004 254.390 C 130.006 254.244,130.127 254.294,130.273 254.500 C 130.509 254.833,130.526 254.833,130.429 254.500 C 130.369 254.294,130.531 253.703,130.790 253.188 C 131.427 251.917,131.193 251.999,130.433 253.313 M273.351 254.289 C 273.248 254.456,273.282 254.510,273.432 254.417 C 273.688 254.259,274.431 255.679,274.303 256.081 C 274.267 256.194,274.352 256.216,274.492 256.130 C 274.652 256.031,274.560 255.608,274.243 254.986 C 273.697 253.915,273.619 253.855,273.351 254.289 M127.909 258.232 C 127.482 259.016,127.334 259.522,127.501 259.625 C 127.645 259.714,127.733 259.694,127.697 259.581 C 127.596 259.264,128.286 257.743,128.477 257.861 C 128.570 257.918,128.663 257.748,128.683 257.483 C 128.735 256.784,128.654 256.863,127.909 258.232 M275.751 258.316 C 275.750 258.564,277.264 261.250,277.405 261.250 C 277.464 261.250,277.331 260.899,277.109 260.470 C 276.492 259.275,275.752 258.103,275.751 258.316 M126.224 261.563 C 126.063 261.872,125.655 262.631,125.318 263.250 C 124.980 263.869,124.866 264.180,125.064 263.941 C 125.262 263.703,125.516 263.590,125.627 263.691 C 125.739 263.792,125.739 263.717,125.627 263.525 C 125.495 263.297,125.586 263.056,125.885 262.837 C 126.138 262.652,126.265 262.500,126.166 262.500 C 126.068 262.500,126.162 262.163,126.375 261.750 C 126.588 261.337,126.708 261.000,126.640 261.000 C 126.573 261.000,126.386 261.253,126.224 261.563 M278.278 263.302 C 278.440 263.606,278.589 264.084,278.609 264.365 C 278.629 264.648,278.794 264.843,278.978 264.802 C 279.191 264.756,279.256 264.873,279.159 265.128 C 279.058 265.390,279.105 265.465,279.295 265.347 C 279.496 265.223,279.529 265.315,279.403 265.646 C 279.267 266.003,279.293 266.053,279.505 265.843 C 279.717 265.633,279.587 265.204,278.996 264.156 C 278.250 262.834,277.638 262.107,278.278 263.302 M123.254 267.156 C 122.663 268.204,122.533 268.633,122.745 268.843 C 122.957 269.053,122.983 269.003,122.847 268.646 C 122.721 268.315,122.754 268.223,122.955 268.347 C 123.150 268.468,123.191 268.386,123.080 268.097 C 122.956 267.775,123.003 267.719,123.270 267.874 C 123.465 267.987,123.545 267.992,123.448 267.884 C 123.351 267.776,123.494 267.252,123.766 266.719 C 124.514 265.253,124.156 265.559,123.254 267.156 M281.043 268.625 C 281.452 269.381,281.837 270.000,281.898 270.000 C 282.072 270.000,280.786 267.552,280.529 267.393 C 280.402 267.314,280.633 267.869,281.043 268.625 M121.058 271.469 C 120.501 272.482,120.365 272.917,120.607 272.917 C 120.811 272.917,120.894 272.763,120.809 272.542 C 120.708 272.279,120.763 272.229,120.996 272.373 C 121.218 272.510,121.268 272.481,121.146 272.284 C 121.046 272.123,121.211 271.593,121.511 271.107 C 121.811 270.621,122.011 270.178,121.956 270.122 C 121.900 270.066,121.496 270.672,121.058 271.469 M282.836 272.156 C 283.053 272.585,283.160 273.007,283.073 273.093 C 282.987 273.179,283.055 273.250,283.223 273.250 C 283.392 273.250,283.449 273.380,283.351 273.539 C 283.247 273.707,283.282 273.760,283.435 273.665 C 283.712 273.494,284.083 274.164,283.887 274.481 C 283.824 274.583,283.936 274.667,284.136 274.667 C 284.406 274.667,284.299 274.304,283.723 273.271 C 282.870 271.741,282.206 270.906,282.836 272.156 M119.224 275.063 C 119.063 275.372,118.659 276.131,118.327 276.750 C 117.995 277.369,117.870 277.660,118.049 277.397 C 118.228 277.134,118.600 276.684,118.875 276.397 C 119.150 276.110,119.345 275.786,119.309 275.677 C 119.273 275.569,119.361 275.259,119.505 274.990 C 119.650 274.720,119.711 274.500,119.643 274.500 C 119.574 274.500,119.386 274.753,119.224 275.063 M285.625 277.500 C 285.838 277.913,286.069 278.250,286.138 278.250 C 286.207 278.250,286.088 277.913,285.875 277.500 C 285.662 277.087,285.431 276.750,285.362 276.750 C 285.293 276.750,285.412 277.087,285.625 277.500 M116.507 280.236 C 116.123 280.988,116.078 281.265,116.314 281.401 C 116.485 281.500,116.545 281.492,116.448 281.384 C 116.351 281.276,116.494 280.752,116.766 280.219 C 117.038 279.686,117.204 279.250,117.135 279.250 C 117.066 279.250,116.784 279.694,116.507 280.236 M287.148 280.713 C 286.937 281.054,287.444 282.064,287.736 281.883 C 288.018 281.709,288.296 282.467,288.086 282.835 C 287.994 282.995,288.016 283.037,288.134 282.930 C 288.252 282.822,288.492 282.991,288.666 283.305 C 288.840 283.618,288.985 283.762,288.988 283.625 C 289.000 283.111,287.315 280.443,287.148 280.713 M158.542 284.437 C 182.284 284.473,221.209 284.473,245.042 284.437 C 268.875 284.402,249.450 284.374,201.875 284.374 C 154.300 284.374,134.800 284.402,158.542 284.437 M135.062 289.437 C 170.641 289.472,228.859 289.472,264.437 289.437 C 300.016 289.403,270.906 289.374,199.750 289.374 C 128.594 289.374,99.484 289.403,135.062 289.437 M135.333 289.937 C 170.922 289.972,229.085 289.972,264.583 289.937 C 300.081 289.903,270.962 289.874,199.875 289.874 C 128.787 289.874,99.744 289.903,135.333 289.937 M70.141 290.224 C 70.065 290.347,70.234 290.713,70.516 291.036 L 71.030 291.625 70.639 290.980 C 70.424 290.625,70.324 290.260,70.416 290.168 C 70.508 290.075,70.515 290.000,70.431 290.000 C 70.348 290.000,70.217 290.101,70.141 290.224 M329.351 290.211 C 329.449 290.370,329.410 290.500,329.265 290.500 C 329.119 290.500,329.028 290.641,329.063 290.813 C 329.097 290.984,328.976 291.094,328.794 291.056 C 328.612 291.019,328.535 291.105,328.624 291.248 C 328.822 291.569,329.166 291.374,329.499 290.751 C 329.676 290.421,329.665 290.227,329.462 290.102 C 329.283 289.991,329.240 290.032,329.351 290.211 M327.877 292.211 C 327.947 292.281,327.759 292.599,327.460 292.918 C 327.160 293.237,326.966 293.550,327.029 293.612 C 327.092 293.675,327.439 293.357,327.799 292.905 C 328.249 292.341,328.344 292.083,328.102 292.083 C 327.909 292.083,327.807 292.141,327.877 292.211 M72.177 293.125 C 72.561 293.606,72.981 294.000,73.112 294.000 C 73.242 294.000,72.966 293.606,72.500 293.125 C 71.417 292.008,71.286 292.008,72.177 293.125 M325.379 295.213 C 325.451 295.284,325.141 295.743,324.692 296.234 C 323.937 297.059,323.955 297.051,324.938 296.137 C 326.163 294.997,326.107 295.083,325.625 295.083 C 325.419 295.083,325.308 295.142,325.379 295.213 M74.767 296.142 C 75.224 296.614,75.652 297.000,75.718 297.000 C 75.783 297.000,75.564 296.710,75.231 296.355 C 74.898 296.000,74.681 295.645,74.750 295.566 C 74.819 295.487,74.664 295.392,74.405 295.354 C 74.040 295.300,74.120 295.475,74.767 296.142 M75.900 297.209 C 75.818 297.343,76.228 297.948,76.813 298.555 C 77.397 299.162,77.677 299.418,77.435 299.123 C 77.193 298.829,77.081 298.494,77.185 298.379 C 77.290 298.264,77.240 298.247,77.075 298.342 C 76.816 298.491,76.045 297.534,76.229 297.292 C 76.263 297.246,76.237 297.154,76.171 297.088 C 76.104 297.021,75.983 297.076,75.900 297.209 M322.769 298.563 C 321.716 299.813,321.709 299.833,322.602 299.000 C 323.407 298.250,324.175 297.250,323.946 297.250 C 323.907 297.250,323.377 297.841,322.769 298.563 M78.750 301.100 C 78.750 301.131,79.114 301.487,79.559 301.891 C 80.085 302.368,80.194 302.419,79.871 302.036 C 79.598 301.712,79.431 301.386,79.500 301.310 C 79.569 301.235,79.428 301.144,79.188 301.108 C 78.947 301.073,78.750 301.069,78.750 301.100 M320.377 301.211 C 320.447 301.281,320.251 301.628,319.941 301.981 C 319.483 302.504,319.529 302.487,320.188 301.891 C 321.132 301.037,321.107 301.083,320.625 301.083 C 320.419 301.083,320.307 301.141,320.377 301.211 M318.969 302.625 C 318.952 302.694,318.921 302.834,318.900 302.938 C 318.791 303.479,317.907 304.474,317.660 304.333 C 317.503 304.243,317.458 304.262,317.560 304.374 C 317.662 304.487,317.622 304.758,317.470 304.977 C 317.319 305.196,317.639 304.890,318.181 304.296 C 318.723 303.703,319.167 303.056,319.167 302.859 C 319.167 302.517,319.035 302.361,318.969 302.625 M80.651 302.957 C 80.581 303.072,81.032 303.718,81.654 304.395 L 82.786 305.625 81.830 304.416 C 81.305 303.751,80.903 303.104,80.938 302.979 C 81.016 302.693,80.823 302.679,80.651 302.957 M316.326 305.984 C 316.397 306.204,315.338 307.504,315.200 307.367 C 315.136 307.302,315.083 307.414,315.083 307.614 C 315.083 308.098,315.316 307.929,316.220 306.788 C 316.713 306.165,316.855 305.833,316.627 305.833 C 316.435 305.833,316.300 305.901,316.326 305.984 M83.720 306.962 C 84.138 307.490,84.681 308.081,84.926 308.274 C 85.171 308.467,84.883 308.034,84.287 307.313 C 83.043 305.805,82.575 305.516,83.720 306.962 M313.737 309.438 L 312.875 310.375 313.813 309.513 C 314.685 308.712,314.865 308.500,314.674 308.500 C 314.632 308.500,314.210 308.922,313.737 309.438 M86.368 310.063 C 87.531 311.425,88.019 311.877,87.581 311.188 C 87.472 311.016,87.381 310.816,87.379 310.743 C 87.377 310.671,86.872 310.165,86.258 309.618 L 85.141 308.625 86.368 310.063 M311.872 311.754 C 311.786 311.894,311.583 311.932,311.420 311.839 C 311.258 311.746,311.210 311.764,311.315 311.879 C 311.419 311.994,311.251 312.378,310.942 312.731 C 310.633 313.085,310.801 312.987,311.315 312.513 C 311.829 312.040,312.250 311.618,312.250 311.576 C 312.250 311.407,312.020 311.516,311.872 311.754 M88.650 312.833 C 89.156 313.406,89.648 313.963,89.744 314.071 C 89.839 314.179,89.917 314.094,89.917 313.883 C 89.917 313.673,89.864 313.552,89.800 313.617 C 89.657 313.760,88.625 312.477,88.625 312.155 C 88.625 312.027,88.423 311.893,88.177 311.857 C 87.846 311.808,87.969 312.063,88.650 312.833 M309.372 314.754 C 309.286 314.894,309.083 314.932,308.920 314.839 C 308.758 314.746,308.710 314.763,308.813 314.877 C 308.916 314.991,308.806 315.319,308.567 315.605 C 308.328 315.891,308.497 315.795,308.941 315.391 C 309.386 314.987,309.750 314.621,309.750 314.578 C 309.750 314.407,309.521 314.514,309.372 314.754 M90.250 314.850 C 90.250 314.881,90.614 315.237,91.059 315.641 C 91.585 316.118,91.694 316.169,91.371 315.786 C 91.098 315.462,90.931 315.136,91.000 315.060 C 91.069 314.985,90.928 314.894,90.688 314.858 C 90.447 314.823,90.250 314.819,90.250 314.850 M306.359 318.313 L 305.625 319.125 306.438 318.391 C 307.195 317.706,307.365 317.500,307.172 317.500 C 307.129 317.500,306.763 317.866,306.359 318.313 M92.750 317.870 C 92.750 317.890,93.115 318.237,93.562 318.641 C 94.221 319.237,94.267 319.254,93.809 318.731 C 93.499 318.378,93.303 318.031,93.373 317.961 C 93.443 317.891,93.331 317.833,93.125 317.833 C 92.919 317.833,92.750 317.850,92.750 317.870 M304.603 320.373 C 304.379 320.715,304.067 320.922,303.910 320.833 C 303.753 320.743,303.708 320.762,303.810 320.874 C 303.912 320.987,303.856 321.258,303.685 321.477 C 303.409 321.831,303.424 321.836,303.824 321.522 C 304.331 321.124,305.357 319.750,305.148 319.750 C 305.073 319.750,304.828 320.030,304.603 320.373 M94.966 320.375 C 95.099 320.650,95.639 321.269,96.165 321.750 C 96.690 322.231,96.867 322.335,96.558 321.981 C 96.249 321.628,96.081 321.244,96.185 321.129 C 96.290 321.014,96.244 320.995,96.084 321.086 C 95.923 321.179,95.556 320.947,95.258 320.564 C 94.963 320.185,94.832 320.100,94.966 320.375 M302.570 322.411 C 302.735 322.678,300.394 325.537,300.154 325.362 C 300.069 325.300,300.054 325.322,300.119 325.411 C 300.258 325.598,298.728 327.399,298.492 327.326 C 298.405 327.300,298.333 327.440,298.333 327.639 C 298.333 328.125,298.189 328.260,300.268 325.824 C 303.038 322.579,303.050 322.561,302.716 322.354 C 302.555 322.254,302.489 322.280,302.570 322.411 M97.140 322.726 C 97.063 322.850,97.520 323.497,98.154 324.163 C 98.789 324.830,99.184 325.196,99.031 324.977 C 98.879 324.758,98.838 324.487,98.940 324.374 C 99.042 324.262,99.002 324.240,98.852 324.325 C 98.577 324.482,97.332 323.036,97.441 322.688 C 97.523 322.425,97.309 322.453,97.140 322.726 M100.263 326.688 C 100.849 327.409,101.357 328.000,101.392 328.000 C 101.570 328.000,101.312 327.228,101.118 327.181 C 100.994 327.150,100.511 326.731,100.045 326.250 C 99.431 325.615,99.491 325.735,100.263 326.688 M101.929 328.416 C 101.860 328.531,102.222 329.110,102.735 329.704 C 103.287 330.344,103.667 330.623,103.667 330.391 C 103.667 330.176,103.611 330.056,103.543 330.123 C 103.413 330.253,102.630 329.250,102.627 328.950 C 102.624 328.634,102.059 328.202,101.929 328.416 M297.637 328.519 C 297.700 328.621,297.390 329.008,296.949 329.380 C 296.507 329.751,296.121 330.226,296.090 330.435 C 296.060 330.644,296.124 330.716,296.232 330.595 C 297.875 328.763,298.188 328.333,297.877 328.333 C 297.682 328.333,297.574 328.417,297.637 328.519 M104.150 331.209 C 104.079 331.325,104.335 331.795,104.719 332.255 C 105.192 332.821,105.417 332.959,105.417 332.681 C 105.417 332.456,105.323 332.330,105.208 332.401 C 105.018 332.518,104.897 332.154,104.970 331.688 C 104.987 331.584,104.859 331.528,104.688 331.563 C 104.516 331.597,104.403 331.484,104.438 331.313 C 104.509 330.957,104.343 330.897,104.150 331.209 M295.138 331.522 C 295.202 331.625,294.888 332.009,294.440 332.375 C 293.992 332.741,293.850 332.929,294.125 332.793 C 294.907 332.406,295.837 331.333,295.390 331.333 C 295.188 331.333,295.074 331.418,295.138 331.522 " stroke="none" fill="#FFFFFF" fill-rule="evenodd"></path></g></svg>