<?xml version="1.0" standalone="no"?>
<!DOCTYPE svg PUBLIC "-//W3C//DTD SVG 20010904//EN"
 "http://www.w3.org/TR/2001/REC-SVG-20010904/DTD/svg10.dtd">
<svg version="1.0" xmlns="http://www.w3.org/2000/svg"
 width="1600.000000pt" height="1600.000000pt" viewBox="0 0 1600.000000 1600.000000"
 preserveAspectRatio="xMidYMid meet">

<g transform="translate(0.000000,1600.000000) scale(0.100000,-0.100000)"
fill="#FFFFFF" stroke="none">
<path d="M430 11318 c0 -2 215 -464 478 -1027 l477 -1024 70 -27 c63 -24 728
-280 2000 -770 253 -98 638 -246 855 -330 217 -83 400 -157 407 -163 6 -7 224
-376 483 -822 259 -445 477 -815 483 -821 7 -7 158 -37 337 -68 179 -32 392
-69 475 -84 l150 -27 77 -131 c79 -137 421 -730 959 -1666 173 -301 316 -547
319 -547 3 0 146 246 319 547 538 936 880 1529 959 1666 l77 131 150 27 c83
15 296 52 475 84 179 31 330 61 337 68 6 6 224 376 483 821 259 446 477 815
483 822 7 6 190 80 407 163 217 84 602 232 855 330 1272 490 1937 746 2000
770 l70 27 477 1024 c262 563 476 1024 475 1025 -1 1 -180 -14 -397 -32 -217
-18 -771 -65 -1230 -103 -459 -39 -1049 -89 -1310 -111 -261 -22 -529 -44
-595 -50 -119 -9 -909 -76 -1248 -105 -98 -8 -184 -18 -190 -22 -7 -3 -400
-285 -875 -626 -475 -340 -864 -618 -866 -616 -1 2 -10 63 -19 134 -10 72 -42
312 -72 534 -30 221 -66 494 -81 605 -25 188 -34 229 -50 213 -4 -3 -35 -142
-70 -309 -35 -167 -66 -313 -69 -325 l-5 -23 -490 0 -490 0 -5 23 c-3 12 -34
158 -69 325 -35 167 -66 306 -70 309 -16 16 -25 -25 -50 -213 -15 -111 -51
-384 -81 -605 -30 -222 -62 -462 -72 -534 -9 -71 -18 -132 -19 -134 -2 -2
-391 276 -866 616 -475 341 -868 623 -875 626 -6 4 -92 14 -190 22 -339 29
-1129 96 -1248 105 -66 6 -334 28 -595 50 -1003 85 -1924 162 -2385 200 -264
22 -497 42 -517 45 -21 3 -38 4 -38 3z"/>
</g>
</svg>
